G04 #@! TF.FileFunction,Legend,Top*
%FSLAX46Y46*%
G04 Gerber Fmt 4.6, Leading zero omitted, Abs format (unit mm)*
G04 Created by KiCad (PCBNEW 4.0.7) date 12/09/17 16:13:06*
%MOMM*%
%LPD*%
G01*
G04 APERTURE LIST*
%ADD10C,0.100000*%
%ADD11C,0.200000*%
%ADD12C,0.120000*%
%ADD13C,0.381000*%
%ADD14C,0.150000*%
G04 APERTURE END LIST*
D10*
D11*
X115475000Y-58300000D02*
X115475000Y-60700000D01*
X115300000Y-58300000D02*
X115300000Y-60700000D01*
X115125000Y-58300000D02*
X115125000Y-60700000D01*
X114725000Y-60700000D02*
X114725000Y-58300000D01*
X114950000Y-58300000D02*
X114950000Y-60700000D01*
X114825000Y-58300000D02*
X114825000Y-60700000D01*
X114750000Y-58300000D02*
X120550000Y-58300000D01*
X120550000Y-58300000D02*
X120550000Y-60700000D01*
X120550000Y-60700000D02*
X114750000Y-60700000D01*
X109475000Y-33550000D02*
X109475000Y-35950000D01*
X109300000Y-33550000D02*
X109300000Y-35950000D01*
X109125000Y-33550000D02*
X109125000Y-35950000D01*
X108725000Y-35950000D02*
X108725000Y-33550000D01*
X108950000Y-33550000D02*
X108950000Y-35950000D01*
X108825000Y-33550000D02*
X108825000Y-35950000D01*
X108750000Y-33550000D02*
X114550000Y-33550000D01*
X114550000Y-33550000D02*
X114550000Y-35950000D01*
X114550000Y-35950000D02*
X108750000Y-35950000D01*
X160725000Y-39300000D02*
X160725000Y-41700000D01*
X160550000Y-39300000D02*
X160550000Y-41700000D01*
X160375000Y-39300000D02*
X160375000Y-41700000D01*
X159975000Y-41700000D02*
X159975000Y-39300000D01*
X160200000Y-39300000D02*
X160200000Y-41700000D01*
X160075000Y-39300000D02*
X160075000Y-41700000D01*
X160000000Y-39300000D02*
X165800000Y-39300000D01*
X165800000Y-39300000D02*
X165800000Y-41700000D01*
X165800000Y-41700000D02*
X160000000Y-41700000D01*
X183725000Y-54300000D02*
X183725000Y-56700000D01*
X183550000Y-54300000D02*
X183550000Y-56700000D01*
X183375000Y-54300000D02*
X183375000Y-56700000D01*
X182975000Y-56700000D02*
X182975000Y-54300000D01*
X183200000Y-54300000D02*
X183200000Y-56700000D01*
X183075000Y-54300000D02*
X183075000Y-56700000D01*
X183000000Y-54300000D02*
X188800000Y-54300000D01*
X188800000Y-54300000D02*
X188800000Y-56700000D01*
X188800000Y-56700000D02*
X183000000Y-56700000D01*
X138800000Y-97525000D02*
X141200000Y-97525000D01*
X138800000Y-97700000D02*
X141200000Y-97700000D01*
X138800000Y-97875000D02*
X141200000Y-97875000D01*
X141200000Y-98275000D02*
X138800000Y-98275000D01*
X138800000Y-98050000D02*
X141200000Y-98050000D01*
X138800000Y-98175000D02*
X141200000Y-98175000D01*
X138800000Y-98250000D02*
X138800000Y-92450000D01*
X138800000Y-92450000D02*
X141200000Y-92450000D01*
X141200000Y-92450000D02*
X141200000Y-98250000D01*
X158800000Y-84525000D02*
X161200000Y-84525000D01*
X158800000Y-84700000D02*
X161200000Y-84700000D01*
X158800000Y-84875000D02*
X161200000Y-84875000D01*
X161200000Y-85275000D02*
X158800000Y-85275000D01*
X158800000Y-85050000D02*
X161200000Y-85050000D01*
X158800000Y-85175000D02*
X161200000Y-85175000D01*
X158800000Y-85250000D02*
X158800000Y-79450000D01*
X158800000Y-79450000D02*
X161200000Y-79450000D01*
X161200000Y-79450000D02*
X161200000Y-85250000D01*
X158800000Y-104525000D02*
X161200000Y-104525000D01*
X158800000Y-104700000D02*
X161200000Y-104700000D01*
X158800000Y-104875000D02*
X161200000Y-104875000D01*
X161200000Y-105275000D02*
X158800000Y-105275000D01*
X158800000Y-105050000D02*
X161200000Y-105050000D01*
X158800000Y-105175000D02*
X161200000Y-105175000D01*
X158800000Y-105250000D02*
X158800000Y-99450000D01*
X158800000Y-99450000D02*
X161200000Y-99450000D01*
X161200000Y-99450000D02*
X161200000Y-105250000D01*
X178800000Y-97525000D02*
X181200000Y-97525000D01*
X178800000Y-97700000D02*
X181200000Y-97700000D01*
X178800000Y-97875000D02*
X181200000Y-97875000D01*
X181200000Y-98275000D02*
X178800000Y-98275000D01*
X178800000Y-98050000D02*
X181200000Y-98050000D01*
X178800000Y-98175000D02*
X181200000Y-98175000D01*
X178800000Y-98250000D02*
X178800000Y-92450000D01*
X178800000Y-92450000D02*
X181200000Y-92450000D01*
X181200000Y-92450000D02*
X181200000Y-98250000D01*
D12*
X117870000Y-39580000D02*
X117870000Y-36920000D01*
X115270000Y-39580000D02*
X117870000Y-39580000D01*
X115270000Y-36920000D02*
X117870000Y-36920000D01*
X115270000Y-39580000D02*
X115270000Y-36920000D01*
X114000000Y-39580000D02*
X112670000Y-39580000D01*
X112670000Y-39580000D02*
X112670000Y-38250000D01*
X136050000Y-50920000D02*
X136050000Y-53580000D01*
X143730000Y-50920000D02*
X136050000Y-50920000D01*
X143730000Y-53580000D02*
X136050000Y-53580000D01*
X143730000Y-50920000D02*
X143730000Y-53580000D01*
X145000000Y-50920000D02*
X146330000Y-50920000D01*
X146330000Y-50920000D02*
X146330000Y-52250000D01*
X117870000Y-42330000D02*
X117870000Y-39670000D01*
X115270000Y-42330000D02*
X117870000Y-42330000D01*
X115270000Y-39670000D02*
X117870000Y-39670000D01*
X115270000Y-42330000D02*
X115270000Y-39670000D01*
X114000000Y-42330000D02*
X112670000Y-42330000D01*
X112670000Y-42330000D02*
X112670000Y-41000000D01*
D13*
X112150000Y-43650000D02*
X113928000Y-43650000D01*
X123072000Y-43650000D02*
X124850000Y-43650000D01*
X124850000Y-43650000D02*
X124850000Y-45428000D01*
X124850000Y-54572000D02*
X124850000Y-56350000D01*
X124850000Y-56350000D02*
X123072000Y-56350000D01*
X113928000Y-56350000D02*
X112150000Y-56350000D01*
X112150000Y-56350000D02*
X112150000Y-54572000D01*
X112150000Y-45428000D02*
X112150000Y-43650000D01*
X135150000Y-33650000D02*
X136928000Y-33650000D01*
X146072000Y-33650000D02*
X147850000Y-33650000D01*
X147850000Y-33650000D02*
X147850000Y-35428000D01*
X147850000Y-44572000D02*
X147850000Y-46350000D01*
X147850000Y-46350000D02*
X146072000Y-46350000D01*
X136928000Y-46350000D02*
X135150000Y-46350000D01*
X135150000Y-46350000D02*
X135150000Y-44572000D01*
X135150000Y-35428000D02*
X135150000Y-33650000D01*
X158150000Y-43650000D02*
X159928000Y-43650000D01*
X169072000Y-43650000D02*
X170850000Y-43650000D01*
X170850000Y-43650000D02*
X170850000Y-45428000D01*
X170850000Y-54572000D02*
X170850000Y-56350000D01*
X170850000Y-56350000D02*
X169072000Y-56350000D01*
X159928000Y-56350000D02*
X158150000Y-56350000D01*
X158150000Y-56350000D02*
X158150000Y-54572000D01*
X158150000Y-45428000D02*
X158150000Y-43650000D01*
X181150000Y-58650000D02*
X182928000Y-58650000D01*
X192072000Y-58650000D02*
X193850000Y-58650000D01*
X193850000Y-58650000D02*
X193850000Y-60428000D01*
X193850000Y-69572000D02*
X193850000Y-71350000D01*
X193850000Y-71350000D02*
X192072000Y-71350000D01*
X182928000Y-71350000D02*
X181150000Y-71350000D01*
X181150000Y-71350000D02*
X181150000Y-69572000D01*
X181150000Y-60428000D02*
X181150000Y-58650000D01*
X124150000Y-89650000D02*
X125928000Y-89650000D01*
X135072000Y-89650000D02*
X136850000Y-89650000D01*
X136850000Y-89650000D02*
X136850000Y-91428000D01*
X136850000Y-100572000D02*
X136850000Y-102350000D01*
X136850000Y-102350000D02*
X135072000Y-102350000D01*
X125928000Y-102350000D02*
X124150000Y-102350000D01*
X124150000Y-102350000D02*
X124150000Y-100572000D01*
X124150000Y-91428000D02*
X124150000Y-89650000D01*
X144150000Y-76650000D02*
X145928000Y-76650000D01*
X155072000Y-76650000D02*
X156850000Y-76650000D01*
X156850000Y-76650000D02*
X156850000Y-78428000D01*
X156850000Y-87572000D02*
X156850000Y-89350000D01*
X156850000Y-89350000D02*
X155072000Y-89350000D01*
X145928000Y-89350000D02*
X144150000Y-89350000D01*
X144150000Y-89350000D02*
X144150000Y-87572000D01*
X144150000Y-78428000D02*
X144150000Y-76650000D01*
X144150000Y-96650000D02*
X145928000Y-96650000D01*
X155072000Y-96650000D02*
X156850000Y-96650000D01*
X156850000Y-96650000D02*
X156850000Y-98428000D01*
X156850000Y-107572000D02*
X156850000Y-109350000D01*
X156850000Y-109350000D02*
X155072000Y-109350000D01*
X145928000Y-109350000D02*
X144150000Y-109350000D01*
X144150000Y-109350000D02*
X144150000Y-107572000D01*
X144150000Y-98428000D02*
X144150000Y-96650000D01*
X164150000Y-89650000D02*
X165928000Y-89650000D01*
X175072000Y-89650000D02*
X176850000Y-89650000D01*
X176850000Y-89650000D02*
X176850000Y-91428000D01*
X176850000Y-100572000D02*
X176850000Y-102350000D01*
X176850000Y-102350000D02*
X175072000Y-102350000D01*
X165928000Y-102350000D02*
X164150000Y-102350000D01*
X164150000Y-102350000D02*
X164150000Y-100572000D01*
X164150000Y-91428000D02*
X164150000Y-89650000D01*
D12*
X103670000Y-57440000D02*
X106330000Y-57440000D01*
X103670000Y-34520000D02*
X103670000Y-57440000D01*
X106330000Y-34520000D02*
X106330000Y-57440000D01*
X103670000Y-34520000D02*
X106330000Y-34520000D01*
X103670000Y-33250000D02*
X103670000Y-31920000D01*
X103670000Y-31920000D02*
X105000000Y-31920000D01*
X103670000Y-85440000D02*
X106330000Y-85440000D01*
X103670000Y-62520000D02*
X103670000Y-85440000D01*
X106330000Y-62520000D02*
X106330000Y-85440000D01*
X103670000Y-62520000D02*
X106330000Y-62520000D01*
X103670000Y-61250000D02*
X103670000Y-59920000D01*
X103670000Y-59920000D02*
X105000000Y-59920000D01*
D14*
X111350080Y-82498860D02*
X115149920Y-82498860D01*
X111350080Y-85501140D02*
X115149920Y-85501140D01*
X115749360Y-81500640D02*
X115749360Y-79798840D01*
X111350080Y-78498860D02*
X115149920Y-78498860D01*
X111350080Y-81501140D02*
X115149920Y-81501140D01*
X115749360Y-77500640D02*
X115749360Y-75798840D01*
X128498860Y-47899920D02*
X128498860Y-44100080D01*
X131501140Y-47899920D02*
X131501140Y-44100080D01*
X127500640Y-43500640D02*
X125798840Y-43500640D01*
D12*
X106670000Y-33580000D02*
X109330000Y-33580000D01*
X106670000Y-33520000D02*
X106670000Y-33580000D01*
X109330000Y-33520000D02*
X109330000Y-33580000D01*
X106670000Y-33520000D02*
X109330000Y-33520000D01*
X106670000Y-32250000D02*
X106670000Y-30920000D01*
X106670000Y-30920000D02*
X108000000Y-30920000D01*
D14*
X117159524Y-61786905D02*
X117159524Y-60986905D01*
X117350000Y-60986905D01*
X117464286Y-61025000D01*
X117540477Y-61101190D01*
X117578572Y-61177381D01*
X117616667Y-61329762D01*
X117616667Y-61444048D01*
X117578572Y-61596429D01*
X117540477Y-61672619D01*
X117464286Y-61748810D01*
X117350000Y-61786905D01*
X117159524Y-61786905D01*
X118378572Y-61786905D02*
X117921429Y-61786905D01*
X118150000Y-61786905D02*
X118150000Y-60986905D01*
X118073810Y-61101190D01*
X117997619Y-61177381D01*
X117921429Y-61215476D01*
X111159524Y-37036905D02*
X111159524Y-36236905D01*
X111350000Y-36236905D01*
X111464286Y-36275000D01*
X111540477Y-36351190D01*
X111578572Y-36427381D01*
X111616667Y-36579762D01*
X111616667Y-36694048D01*
X111578572Y-36846429D01*
X111540477Y-36922619D01*
X111464286Y-36998810D01*
X111350000Y-37036905D01*
X111159524Y-37036905D01*
X111921429Y-36313095D02*
X111959524Y-36275000D01*
X112035715Y-36236905D01*
X112226191Y-36236905D01*
X112302381Y-36275000D01*
X112340477Y-36313095D01*
X112378572Y-36389286D01*
X112378572Y-36465476D01*
X112340477Y-36579762D01*
X111883334Y-37036905D01*
X112378572Y-37036905D01*
X162409524Y-42786905D02*
X162409524Y-41986905D01*
X162600000Y-41986905D01*
X162714286Y-42025000D01*
X162790477Y-42101190D01*
X162828572Y-42177381D01*
X162866667Y-42329762D01*
X162866667Y-42444048D01*
X162828572Y-42596429D01*
X162790477Y-42672619D01*
X162714286Y-42748810D01*
X162600000Y-42786905D01*
X162409524Y-42786905D01*
X163133334Y-41986905D02*
X163628572Y-41986905D01*
X163361905Y-42291667D01*
X163476191Y-42291667D01*
X163552381Y-42329762D01*
X163590477Y-42367857D01*
X163628572Y-42444048D01*
X163628572Y-42634524D01*
X163590477Y-42710714D01*
X163552381Y-42748810D01*
X163476191Y-42786905D01*
X163247619Y-42786905D01*
X163171429Y-42748810D01*
X163133334Y-42710714D01*
X185409524Y-57786905D02*
X185409524Y-56986905D01*
X185600000Y-56986905D01*
X185714286Y-57025000D01*
X185790477Y-57101190D01*
X185828572Y-57177381D01*
X185866667Y-57329762D01*
X185866667Y-57444048D01*
X185828572Y-57596429D01*
X185790477Y-57672619D01*
X185714286Y-57748810D01*
X185600000Y-57786905D01*
X185409524Y-57786905D01*
X186552381Y-57253571D02*
X186552381Y-57786905D01*
X186361905Y-56948810D02*
X186171429Y-57520238D01*
X186666667Y-57520238D01*
X142286905Y-95840476D02*
X141486905Y-95840476D01*
X141486905Y-95650000D01*
X141525000Y-95535714D01*
X141601190Y-95459523D01*
X141677381Y-95421428D01*
X141829762Y-95383333D01*
X141944048Y-95383333D01*
X142096429Y-95421428D01*
X142172619Y-95459523D01*
X142248810Y-95535714D01*
X142286905Y-95650000D01*
X142286905Y-95840476D01*
X141486905Y-94659523D02*
X141486905Y-95040476D01*
X141867857Y-95078571D01*
X141829762Y-95040476D01*
X141791667Y-94964285D01*
X141791667Y-94773809D01*
X141829762Y-94697619D01*
X141867857Y-94659523D01*
X141944048Y-94621428D01*
X142134524Y-94621428D01*
X142210714Y-94659523D01*
X142248810Y-94697619D01*
X142286905Y-94773809D01*
X142286905Y-94964285D01*
X142248810Y-95040476D01*
X142210714Y-95078571D01*
X162286905Y-82840476D02*
X161486905Y-82840476D01*
X161486905Y-82650000D01*
X161525000Y-82535714D01*
X161601190Y-82459523D01*
X161677381Y-82421428D01*
X161829762Y-82383333D01*
X161944048Y-82383333D01*
X162096429Y-82421428D01*
X162172619Y-82459523D01*
X162248810Y-82535714D01*
X162286905Y-82650000D01*
X162286905Y-82840476D01*
X161486905Y-81697619D02*
X161486905Y-81850000D01*
X161525000Y-81926190D01*
X161563095Y-81964285D01*
X161677381Y-82040476D01*
X161829762Y-82078571D01*
X162134524Y-82078571D01*
X162210714Y-82040476D01*
X162248810Y-82002381D01*
X162286905Y-81926190D01*
X162286905Y-81773809D01*
X162248810Y-81697619D01*
X162210714Y-81659523D01*
X162134524Y-81621428D01*
X161944048Y-81621428D01*
X161867857Y-81659523D01*
X161829762Y-81697619D01*
X161791667Y-81773809D01*
X161791667Y-81926190D01*
X161829762Y-82002381D01*
X161867857Y-82040476D01*
X161944048Y-82078571D01*
X162286905Y-102840476D02*
X161486905Y-102840476D01*
X161486905Y-102650000D01*
X161525000Y-102535714D01*
X161601190Y-102459523D01*
X161677381Y-102421428D01*
X161829762Y-102383333D01*
X161944048Y-102383333D01*
X162096429Y-102421428D01*
X162172619Y-102459523D01*
X162248810Y-102535714D01*
X162286905Y-102650000D01*
X162286905Y-102840476D01*
X161486905Y-102116666D02*
X161486905Y-101583333D01*
X162286905Y-101926190D01*
X182286905Y-95840476D02*
X181486905Y-95840476D01*
X181486905Y-95650000D01*
X181525000Y-95535714D01*
X181601190Y-95459523D01*
X181677381Y-95421428D01*
X181829762Y-95383333D01*
X181944048Y-95383333D01*
X182096429Y-95421428D01*
X182172619Y-95459523D01*
X182248810Y-95535714D01*
X182286905Y-95650000D01*
X182286905Y-95840476D01*
X181829762Y-94926190D02*
X181791667Y-95002381D01*
X181753571Y-95040476D01*
X181677381Y-95078571D01*
X181639286Y-95078571D01*
X181563095Y-95040476D01*
X181525000Y-95002381D01*
X181486905Y-94926190D01*
X181486905Y-94773809D01*
X181525000Y-94697619D01*
X181563095Y-94659523D01*
X181639286Y-94621428D01*
X181677381Y-94621428D01*
X181753571Y-94659523D01*
X181791667Y-94697619D01*
X181829762Y-94773809D01*
X181829762Y-94926190D01*
X181867857Y-95002381D01*
X181905952Y-95040476D01*
X181982143Y-95078571D01*
X182134524Y-95078571D01*
X182210714Y-95040476D01*
X182248810Y-95002381D01*
X182286905Y-94926190D01*
X182286905Y-94773809D01*
X182248810Y-94697619D01*
X182210714Y-94659523D01*
X182134524Y-94621428D01*
X181982143Y-94621428D01*
X181905952Y-94659523D01*
X181867857Y-94697619D01*
X181829762Y-94773809D01*
X111122381Y-38583333D02*
X111836667Y-38583333D01*
X111979524Y-38630953D01*
X112074762Y-38726191D01*
X112122381Y-38869048D01*
X112122381Y-38964286D01*
X111122381Y-38202381D02*
X111122381Y-37583333D01*
X111503333Y-37916667D01*
X111503333Y-37773809D01*
X111550952Y-37678571D01*
X111598571Y-37630952D01*
X111693810Y-37583333D01*
X111931905Y-37583333D01*
X112027143Y-37630952D01*
X112074762Y-37678571D01*
X112122381Y-37773809D01*
X112122381Y-38059524D01*
X112074762Y-38154762D01*
X112027143Y-38202381D01*
X146782381Y-52583333D02*
X147496667Y-52583333D01*
X147639524Y-52630953D01*
X147734762Y-52726191D01*
X147782381Y-52869048D01*
X147782381Y-52964286D01*
X147115714Y-51678571D02*
X147782381Y-51678571D01*
X146734762Y-51916667D02*
X147449048Y-52154762D01*
X147449048Y-51535714D01*
X111122381Y-41333333D02*
X111836667Y-41333333D01*
X111979524Y-41380953D01*
X112074762Y-41476191D01*
X112122381Y-41619048D01*
X112122381Y-41714286D01*
X111122381Y-40380952D02*
X111122381Y-40857143D01*
X111598571Y-40904762D01*
X111550952Y-40857143D01*
X111503333Y-40761905D01*
X111503333Y-40523809D01*
X111550952Y-40428571D01*
X111598571Y-40380952D01*
X111693810Y-40333333D01*
X111931905Y-40333333D01*
X112027143Y-40380952D01*
X112074762Y-40428571D01*
X112122381Y-40523809D01*
X112122381Y-40761905D01*
X112074762Y-40857143D01*
X112027143Y-40904762D01*
X104666667Y-30372381D02*
X104666667Y-31086667D01*
X104619047Y-31229524D01*
X104523809Y-31324762D01*
X104380952Y-31372381D01*
X104285714Y-31372381D01*
X105666667Y-31372381D02*
X105095238Y-31372381D01*
X105380952Y-31372381D02*
X105380952Y-30372381D01*
X105285714Y-30515238D01*
X105190476Y-30610476D01*
X105095238Y-30658095D01*
X104666667Y-58372381D02*
X104666667Y-59086667D01*
X104619047Y-59229524D01*
X104523809Y-59324762D01*
X104380952Y-59372381D01*
X104285714Y-59372381D01*
X105095238Y-58467619D02*
X105142857Y-58420000D01*
X105238095Y-58372381D01*
X105476191Y-58372381D01*
X105571429Y-58420000D01*
X105619048Y-58467619D01*
X105666667Y-58562857D01*
X105666667Y-58658095D01*
X105619048Y-58800952D01*
X105047619Y-59372381D01*
X105666667Y-59372381D01*
X120833334Y-84452381D02*
X120500000Y-83976190D01*
X120261905Y-84452381D02*
X120261905Y-83452381D01*
X120642858Y-83452381D01*
X120738096Y-83500000D01*
X120785715Y-83547619D01*
X120833334Y-83642857D01*
X120833334Y-83785714D01*
X120785715Y-83880952D01*
X120738096Y-83928571D01*
X120642858Y-83976190D01*
X120261905Y-83976190D01*
X121785715Y-84452381D02*
X121214286Y-84452381D01*
X121500000Y-84452381D02*
X121500000Y-83452381D01*
X121404762Y-83595238D01*
X121309524Y-83690476D01*
X121214286Y-83738095D01*
X120833334Y-80202381D02*
X120500000Y-79726190D01*
X120261905Y-80202381D02*
X120261905Y-79202381D01*
X120642858Y-79202381D01*
X120738096Y-79250000D01*
X120785715Y-79297619D01*
X120833334Y-79392857D01*
X120833334Y-79535714D01*
X120785715Y-79630952D01*
X120738096Y-79678571D01*
X120642858Y-79726190D01*
X120261905Y-79726190D01*
X121214286Y-79297619D02*
X121261905Y-79250000D01*
X121357143Y-79202381D01*
X121595239Y-79202381D01*
X121690477Y-79250000D01*
X121738096Y-79297619D01*
X121785715Y-79392857D01*
X121785715Y-79488095D01*
X121738096Y-79630952D01*
X121166667Y-80202381D01*
X121785715Y-80202381D01*
X133551181Y-46265726D02*
X133074990Y-46599060D01*
X133551181Y-46837155D02*
X132551181Y-46837155D01*
X132551181Y-46456202D01*
X132598800Y-46360964D01*
X132646419Y-46313345D01*
X132741657Y-46265726D01*
X132884514Y-46265726D01*
X132979752Y-46313345D01*
X133027371Y-46360964D01*
X133074990Y-46456202D01*
X133074990Y-46837155D01*
X132551181Y-45932393D02*
X132551181Y-45313345D01*
X132932133Y-45646679D01*
X132932133Y-45503821D01*
X132979752Y-45408583D01*
X133027371Y-45360964D01*
X133122610Y-45313345D01*
X133360705Y-45313345D01*
X133455943Y-45360964D01*
X133503562Y-45408583D01*
X133551181Y-45503821D01*
X133551181Y-45789536D01*
X133503562Y-45884774D01*
X133455943Y-45932393D01*
X107666667Y-29372381D02*
X107666667Y-30086667D01*
X107619047Y-30229524D01*
X107523809Y-30324762D01*
X107380952Y-30372381D01*
X107285714Y-30372381D01*
X108571429Y-29372381D02*
X108380952Y-29372381D01*
X108285714Y-29420000D01*
X108238095Y-29467619D01*
X108142857Y-29610476D01*
X108095238Y-29800952D01*
X108095238Y-30181905D01*
X108142857Y-30277143D01*
X108190476Y-30324762D01*
X108285714Y-30372381D01*
X108476191Y-30372381D01*
X108571429Y-30324762D01*
X108619048Y-30277143D01*
X108666667Y-30181905D01*
X108666667Y-29943810D01*
X108619048Y-29848571D01*
X108571429Y-29800952D01*
X108476191Y-29753333D01*
X108285714Y-29753333D01*
X108190476Y-29800952D01*
X108142857Y-29848571D01*
X108095238Y-29943810D01*
M02*
