G04 #@! TF.GenerationSoftware,KiCad,Pcbnew,(5.1.2)-2*
G04 #@! TF.CreationDate,2019-07-07T18:04:58+10:00*
G04 #@! TF.ProjectId,Right_Combined_Micro,52696768-745f-4436-9f6d-62696e65645f,rev?*
G04 #@! TF.SameCoordinates,Original*
G04 #@! TF.FileFunction,Copper,L2,Bot*
G04 #@! TF.FilePolarity,Positive*
%FSLAX46Y46*%
G04 Gerber Fmt 4.6, Leading zero omitted, Abs format (unit mm)*
G04 Created by KiCad (PCBNEW (5.1.2)-2) date 2019-07-07 18:04:58*
%MOMM*%
%LPD*%
G04 APERTURE LIST*
%ADD10R,1.752600X1.752600*%
%ADD11C,1.752600*%
%ADD12R,1.600000X1.600000*%
%ADD13C,1.600000*%
%ADD14R,1.700000X1.700000*%
%ADD15O,1.700000X1.700000*%
%ADD16C,2.500000*%
%ADD17C,2.500000*%
%ADD18R,1.998980X1.998980*%
%ADD19C,0.250000*%
G04 APERTURE END LIST*
D10*
X126120000Y-38530000D03*
D11*
X126120000Y-41070000D03*
X126120000Y-43610000D03*
X126120000Y-46150000D03*
X126120000Y-48690000D03*
X126120000Y-51230000D03*
X126120000Y-53770000D03*
X126120000Y-56310000D03*
X126120000Y-58850000D03*
X126120000Y-61390000D03*
X126120000Y-63930000D03*
X126120000Y-66470000D03*
X110880000Y-66470000D03*
X110880000Y-63930000D03*
X110880000Y-61390000D03*
X110880000Y-58850000D03*
X110880000Y-56310000D03*
X110880000Y-53770000D03*
X110880000Y-51230000D03*
X110880000Y-48690000D03*
X110880000Y-46150000D03*
X110880000Y-43610000D03*
X110880000Y-41070000D03*
X110880000Y-38530000D03*
D12*
X113850000Y-59500000D03*
D13*
X121650000Y-59500000D03*
D12*
X107850000Y-34750000D03*
D13*
X115650000Y-34750000D03*
D12*
X159100000Y-40500000D03*
D13*
X166900000Y-40500000D03*
D12*
X182100000Y-55500000D03*
D13*
X189900000Y-55500000D03*
D12*
X140000000Y-99150000D03*
D13*
X140000000Y-91350000D03*
D12*
X160000000Y-86150000D03*
D13*
X160000000Y-78350000D03*
D12*
X160000000Y-106150000D03*
D13*
X160000000Y-98350000D03*
D12*
X180000000Y-99150000D03*
D13*
X180000000Y-91350000D03*
D14*
X114000000Y-38250000D03*
D15*
X116540000Y-38250000D03*
D14*
X145000000Y-52250000D03*
D15*
X142460000Y-52250000D03*
X139920000Y-52250000D03*
X137380000Y-52250000D03*
D14*
X114000000Y-41000000D03*
D15*
X116540000Y-41000000D03*
D16*
X115095000Y-46730000D03*
D17*
X115500453Y-46000046D02*
X114689547Y-47459954D01*
D16*
X121020000Y-45210000D03*
D17*
X121039724Y-44920672D02*
X121000276Y-45499328D01*
D16*
X138095000Y-36730000D03*
D17*
X138500453Y-36000046D02*
X137689547Y-37459954D01*
D16*
X144020000Y-35210000D03*
D17*
X144039724Y-34920672D02*
X144000276Y-35499328D01*
D16*
X161095000Y-46730000D03*
D17*
X161500453Y-46000046D02*
X160689547Y-47459954D01*
D16*
X167020000Y-45210000D03*
D17*
X167039724Y-44920672D02*
X167000276Y-45499328D01*
D16*
X184095000Y-61730000D03*
D17*
X184500453Y-61000046D02*
X183689547Y-62459954D01*
D16*
X190020000Y-60210000D03*
D17*
X190039724Y-59920672D02*
X190000276Y-60499328D01*
D16*
X127095000Y-92730000D03*
D17*
X127500453Y-92000046D02*
X126689547Y-93459954D01*
D16*
X133020000Y-91210000D03*
D17*
X133039724Y-90920672D02*
X133000276Y-91499328D01*
D16*
X147095000Y-79730000D03*
D17*
X147500453Y-79000046D02*
X146689547Y-80459954D01*
D16*
X153020000Y-78210000D03*
D17*
X153039724Y-77920672D02*
X153000276Y-78499328D01*
D16*
X147095000Y-99730000D03*
D17*
X147500453Y-99000046D02*
X146689547Y-100459954D01*
D16*
X153020000Y-98210000D03*
D17*
X153039724Y-97920672D02*
X153000276Y-98499328D01*
D16*
X167095000Y-92730000D03*
D17*
X167500453Y-92000046D02*
X166689547Y-93459954D01*
D16*
X173020000Y-91210000D03*
D17*
X173039724Y-90920672D02*
X173000276Y-91499328D01*
D14*
X105000000Y-33250000D03*
D15*
X105000000Y-35790000D03*
X105000000Y-38330000D03*
X105000000Y-40870000D03*
X105000000Y-43410000D03*
X105000000Y-45950000D03*
X105000000Y-48490000D03*
X105000000Y-51030000D03*
X105000000Y-53570000D03*
X105000000Y-56110000D03*
D14*
X105000000Y-61250000D03*
D15*
X105000000Y-63790000D03*
X105000000Y-66330000D03*
X105000000Y-68870000D03*
X105000000Y-71410000D03*
X105000000Y-73950000D03*
X105000000Y-76490000D03*
X105000000Y-79030000D03*
X105000000Y-81570000D03*
X105000000Y-84110000D03*
D18*
X118251260Y-84000000D03*
X108248740Y-84000000D03*
X118251260Y-80000000D03*
X108248740Y-80000000D03*
X130000000Y-40998740D03*
X130000000Y-51001260D03*
D14*
X108000000Y-32250000D03*
D19*
X105000000Y-33250000D02*
X102000000Y-33250000D01*
X115400000Y-99150000D02*
X140000000Y-99150000D01*
X101250000Y-85000000D02*
X115400000Y-99150000D01*
X101250000Y-34000000D02*
X101250000Y-85000000D01*
X102000000Y-33250000D02*
X101250000Y-34000000D01*
X112250000Y-51250000D02*
X112250000Y-50750000D01*
X112250000Y-57750000D02*
X112250000Y-51250000D01*
X111150000Y-58850000D02*
X112250000Y-57750000D01*
X112000000Y-33250000D02*
X112250000Y-33500000D01*
X112250000Y-33500000D02*
X112250000Y-49000000D01*
X112000000Y-33250000D02*
X105000000Y-33250000D01*
X112250000Y-49000000D02*
X112250000Y-49000000D01*
X112250000Y-49250000D02*
X112250000Y-49000000D01*
X112000000Y-49500000D02*
X112250000Y-49250000D01*
X112000000Y-50500000D02*
X112000000Y-49500000D01*
X112250000Y-50750000D02*
X112000000Y-50500000D01*
X110880000Y-58850000D02*
X111150000Y-58850000D01*
X115650000Y-34750000D02*
X116500000Y-34750000D01*
X142560000Y-33750000D02*
X144020000Y-35210000D01*
X117500000Y-33750000D02*
X142560000Y-33750000D01*
X116500000Y-34750000D02*
X117500000Y-33750000D01*
X160000000Y-86150000D02*
X174600000Y-86150000D01*
X133000000Y-32500000D02*
X107750000Y-32500000D01*
X134000000Y-31500000D02*
X133000000Y-32500000D01*
X164500000Y-31500000D02*
X134000000Y-31500000D01*
X176000000Y-43000000D02*
X164500000Y-31500000D01*
X176000000Y-84750000D02*
X176000000Y-43000000D01*
X174600000Y-86150000D02*
X176000000Y-84750000D01*
X105000000Y-35790000D02*
X104460000Y-35790000D01*
X159100000Y-40500000D02*
X159000000Y-40500000D01*
X159000000Y-40500000D02*
X158000000Y-41500000D01*
X158000000Y-104150000D02*
X160000000Y-106150000D01*
X158000000Y-41500000D02*
X158000000Y-104150000D01*
X105000000Y-66330000D02*
X104330000Y-66330000D01*
X182100000Y-55500000D02*
X182000000Y-55500000D01*
X182000000Y-55500000D02*
X180250000Y-57250000D01*
X182250000Y-96900000D02*
X180000000Y-99150000D01*
X182250000Y-90750000D02*
X182250000Y-96900000D01*
X180250000Y-88750000D02*
X182250000Y-90750000D01*
X180250000Y-57250000D02*
X180250000Y-88750000D01*
X106250000Y-41000000D02*
X109500000Y-44250000D01*
X105130000Y-41000000D02*
X106250000Y-41000000D01*
X109500000Y-65090000D02*
X110880000Y-66470000D01*
X109500000Y-44250000D02*
X109500000Y-65090000D01*
X105130000Y-41000000D02*
X105000000Y-40870000D01*
X109250000Y-68250000D02*
X108750000Y-67750000D01*
X106410000Y-43410000D02*
X108750000Y-45750000D01*
X109250000Y-68250000D02*
X113000000Y-68250000D01*
X113000000Y-68250000D02*
X119250000Y-62000000D01*
X119250000Y-62000000D02*
X119250000Y-58100000D01*
X126120000Y-51230000D02*
X119250000Y-58100000D01*
X106410000Y-43410000D02*
X105000000Y-43410000D01*
X108750000Y-67750000D02*
X108750000Y-45750000D01*
X108000000Y-47500000D02*
X108000000Y-68250000D01*
X106200000Y-45950000D02*
X108000000Y-47500000D01*
X113750000Y-69750000D02*
X123500000Y-60000000D01*
X123500000Y-60000000D02*
X123500000Y-58930000D01*
X126120000Y-56310000D02*
X123500000Y-58930000D01*
X106200000Y-45950000D02*
X105000000Y-45950000D01*
X109500000Y-69750000D02*
X113750000Y-69750000D01*
X108000000Y-68250000D02*
X109500000Y-69750000D01*
X105000000Y-76490000D02*
X107510000Y-76490000D01*
X107510000Y-76490000D02*
X108250000Y-75750000D01*
X105000000Y-48490000D02*
X105990000Y-48490000D01*
X108250000Y-69750000D02*
X108250000Y-75750000D01*
X107250000Y-68750000D02*
X108250000Y-69750000D01*
X107250000Y-49750000D02*
X107250000Y-68750000D01*
X105990000Y-48490000D02*
X107250000Y-49750000D01*
X142460000Y-52250000D02*
X142460000Y-64040000D01*
X110250000Y-77750000D02*
X108250000Y-75750000D01*
X110250000Y-77750000D02*
X114750000Y-77750000D01*
X114750000Y-77750000D02*
X116500000Y-76000000D01*
X116500000Y-76000000D02*
X116500000Y-71000000D01*
X116500000Y-71000000D02*
X118000000Y-69500000D01*
X118000000Y-69500000D02*
X137000000Y-69500000D01*
X137000000Y-69500000D02*
X142460000Y-64040000D01*
X130000000Y-51001260D02*
X130000000Y-53750000D01*
X142460000Y-53790000D02*
X142460000Y-52250000D01*
X141750000Y-54500000D02*
X142460000Y-53790000D01*
X130750000Y-54500000D02*
X141750000Y-54500000D01*
X130000000Y-53750000D02*
X130750000Y-54500000D01*
X105000000Y-56110000D02*
X104140000Y-56110000D01*
X102860000Y-84110000D02*
X105000000Y-84110000D01*
X102500000Y-83750000D02*
X102860000Y-84110000D01*
X102500000Y-57750000D02*
X102500000Y-83750000D01*
X104140000Y-56110000D02*
X102500000Y-57750000D01*
X105000000Y-79030000D02*
X107278740Y-79030000D01*
X107278740Y-79030000D02*
X108248740Y-80000000D01*
X105000000Y-81570000D02*
X106320000Y-81570000D01*
X106320000Y-81570000D02*
X108248740Y-83498740D01*
X108248740Y-83498740D02*
X108248740Y-84000000D01*
X114000000Y-38250000D02*
X114000000Y-37750000D01*
X114000000Y-37750000D02*
X115500000Y-36250000D01*
X130000000Y-37000000D02*
X130000000Y-40998740D01*
X129250000Y-36250000D02*
X130000000Y-37000000D01*
X115500000Y-36250000D02*
X129250000Y-36250000D01*
X126120000Y-48690000D02*
X126560000Y-48690000D01*
X126560000Y-48690000D02*
X127750000Y-47500000D01*
X138095000Y-44655000D02*
X138095000Y-36730000D01*
X136750000Y-46000000D02*
X138095000Y-44655000D01*
X128500000Y-46000000D02*
X136750000Y-46000000D01*
X127750000Y-46750000D02*
X128500000Y-46000000D01*
X127750000Y-47500000D02*
X127750000Y-46750000D01*
X115095000Y-46730000D02*
X119230000Y-46730000D01*
X125180000Y-47750000D02*
X126120000Y-48690000D01*
X120250000Y-47750000D02*
X125180000Y-47750000D01*
X119230000Y-46730000D02*
X120250000Y-47750000D01*
X147095000Y-99730000D02*
X150980000Y-99730000D01*
X167095000Y-105155000D02*
X167095000Y-92730000D01*
X164750000Y-107500000D02*
X167095000Y-105155000D01*
X155500000Y-107500000D02*
X164750000Y-107500000D01*
X153500000Y-105500000D02*
X155500000Y-107500000D01*
X153500000Y-101000000D02*
X153500000Y-105500000D01*
X153000000Y-100500000D02*
X153500000Y-101000000D01*
X151750000Y-100500000D02*
X153000000Y-100500000D01*
X150980000Y-99730000D02*
X151750000Y-100500000D01*
X127095000Y-92730000D02*
X131480000Y-92730000D01*
X145500000Y-98135000D02*
X147095000Y-99730000D01*
X145500000Y-95750000D02*
X145500000Y-98135000D01*
X144000000Y-94250000D02*
X145500000Y-95750000D01*
X133000000Y-94250000D02*
X144000000Y-94250000D01*
X131480000Y-92730000D02*
X133000000Y-94250000D01*
X147095000Y-79730000D02*
X147095000Y-99730000D01*
X126120000Y-53770000D02*
X126730000Y-53770000D01*
X126730000Y-53770000D02*
X128000000Y-52500000D01*
X128000000Y-52500000D02*
X128000000Y-49500000D01*
X128000000Y-49500000D02*
X128750000Y-48750000D01*
X128750000Y-48750000D02*
X147250000Y-48750000D01*
X147250000Y-48750000D02*
X148500000Y-50000000D01*
X148500000Y-50000000D02*
X148500000Y-58250000D01*
X148500000Y-58250000D02*
X145250000Y-61500000D01*
X145250000Y-61500000D02*
X145250000Y-77885000D01*
X145250000Y-77885000D02*
X147095000Y-79730000D01*
M02*
