G04 #@! TF.GenerationSoftware,KiCad,Pcbnew,(5.1.2)-2*
G04 #@! TF.CreationDate,2019-07-07T18:04:58+10:00*
G04 #@! TF.ProjectId,Right_Combined_Micro,52696768-745f-4436-9f6d-62696e65645f,rev?*
G04 #@! TF.SameCoordinates,Original*
G04 #@! TF.FileFunction,Legend,Bot*
G04 #@! TF.FilePolarity,Positive*
%FSLAX46Y46*%
G04 Gerber Fmt 4.6, Leading zero omitted, Abs format (unit mm)*
G04 Created by KiCad (PCBNEW (5.1.2)-2) date 2019-07-07 18:04:58*
%MOMM*%
%LPD*%
G04 APERTURE LIST*
%ADD10C,0.300000*%
%ADD11C,0.381000*%
%ADD12C,0.203200*%
%ADD13C,0.200000*%
G04 APERTURE END LIST*
D10*
X193571428Y-81178571D02*
X193571428Y-79678571D01*
X192714285Y-81178571D02*
X193357142Y-80321428D01*
X192714285Y-79678571D02*
X193571428Y-80535714D01*
X192071428Y-80607142D02*
X190928571Y-80607142D01*
X189357142Y-81035714D02*
X189428571Y-81107142D01*
X189642857Y-81178571D01*
X189785714Y-81178571D01*
X190000000Y-81107142D01*
X190142857Y-80964285D01*
X190214285Y-80821428D01*
X190285714Y-80535714D01*
X190285714Y-80321428D01*
X190214285Y-80035714D01*
X190142857Y-79892857D01*
X190000000Y-79750000D01*
X189785714Y-79678571D01*
X189642857Y-79678571D01*
X189428571Y-79750000D01*
X189357142Y-79821428D01*
X188714285Y-81178571D02*
X188714285Y-79678571D01*
X188071428Y-81178571D02*
X188071428Y-80392857D01*
X188142857Y-80250000D01*
X188285714Y-80178571D01*
X188500000Y-80178571D01*
X188642857Y-80250000D01*
X188714285Y-80321428D01*
X187142857Y-81178571D02*
X187285714Y-81107142D01*
X187357142Y-81035714D01*
X187428571Y-80892857D01*
X187428571Y-80464285D01*
X187357142Y-80321428D01*
X187285714Y-80250000D01*
X187142857Y-80178571D01*
X186928571Y-80178571D01*
X186785714Y-80250000D01*
X186714285Y-80321428D01*
X186642857Y-80464285D01*
X186642857Y-80892857D01*
X186714285Y-81035714D01*
X186785714Y-81107142D01*
X186928571Y-81178571D01*
X187142857Y-81178571D01*
X186000000Y-81178571D02*
X186000000Y-80178571D01*
X186000000Y-80464285D02*
X185928571Y-80321428D01*
X185857142Y-80250000D01*
X185714285Y-80178571D01*
X185571428Y-80178571D01*
X184428571Y-81178571D02*
X184428571Y-79678571D01*
X184428571Y-81107142D02*
X184571428Y-81178571D01*
X184857142Y-81178571D01*
X185000000Y-81107142D01*
X185071428Y-81035714D01*
X185142857Y-80892857D01*
X185142857Y-80464285D01*
X185071428Y-80321428D01*
X185000000Y-80250000D01*
X184857142Y-80178571D01*
X184571428Y-80178571D01*
X184428571Y-80250000D01*
X182714285Y-80178571D02*
X182357142Y-81178571D01*
X182000000Y-80178571D01*
X180642857Y-81178571D02*
X181500000Y-81178571D01*
X181071428Y-81178571D02*
X181071428Y-79678571D01*
X181214285Y-79892857D01*
X181357142Y-80035714D01*
X181500000Y-80107142D01*
X178357142Y-80392857D02*
X178142857Y-80464285D01*
X178071428Y-80535714D01*
X178000000Y-80678571D01*
X178000000Y-80892857D01*
X178071428Y-81035714D01*
X178142857Y-81107142D01*
X178285714Y-81178571D01*
X178857142Y-81178571D01*
X178857142Y-79678571D01*
X178357142Y-79678571D01*
X178214285Y-79750000D01*
X178142857Y-79821428D01*
X178071428Y-79964285D01*
X178071428Y-80107142D01*
X178142857Y-80250000D01*
X178214285Y-80321428D01*
X178357142Y-80392857D01*
X178857142Y-80392857D01*
X177357142Y-81178571D02*
X177357142Y-80178571D01*
X177357142Y-80464285D02*
X177285714Y-80321428D01*
X177214285Y-80250000D01*
X177071428Y-80178571D01*
X176928571Y-80178571D01*
X175785714Y-81178571D02*
X175785714Y-79678571D01*
X175785714Y-81107142D02*
X175928571Y-81178571D01*
X176214285Y-81178571D01*
X176357142Y-81107142D01*
X176428571Y-81035714D01*
X176500000Y-80892857D01*
X176500000Y-80464285D01*
X176428571Y-80321428D01*
X176357142Y-80250000D01*
X176214285Y-80178571D01*
X175928571Y-80178571D01*
X175785714Y-80250000D01*
X174285714Y-81178571D02*
X175142857Y-81178571D01*
X174714285Y-81178571D02*
X174714285Y-79678571D01*
X174857142Y-79892857D01*
X175000000Y-80035714D01*
X175142857Y-80107142D01*
X172071428Y-81750000D02*
X172142857Y-81678571D01*
X172285714Y-81464285D01*
X172357142Y-81321428D01*
X172428571Y-81107142D01*
X172500000Y-80750000D01*
X172500000Y-80464285D01*
X172428571Y-80107142D01*
X172357142Y-79892857D01*
X172285714Y-79750000D01*
X172142857Y-79535714D01*
X172071428Y-79464285D01*
X170642857Y-81178571D02*
X171142857Y-80464285D01*
X171500000Y-81178571D02*
X171500000Y-79678571D01*
X170928571Y-79678571D01*
X170785714Y-79750000D01*
X170714285Y-79821428D01*
X170642857Y-79964285D01*
X170642857Y-80178571D01*
X170714285Y-80321428D01*
X170785714Y-80392857D01*
X170928571Y-80464285D01*
X171500000Y-80464285D01*
X170000000Y-81178571D02*
X170000000Y-80178571D01*
X170000000Y-79678571D02*
X170071428Y-79750000D01*
X170000000Y-79821428D01*
X169928571Y-79750000D01*
X170000000Y-79678571D01*
X170000000Y-79821428D01*
X168642857Y-80178571D02*
X168642857Y-81392857D01*
X168714285Y-81535714D01*
X168785714Y-81607142D01*
X168928571Y-81678571D01*
X169142857Y-81678571D01*
X169285714Y-81607142D01*
X168642857Y-81107142D02*
X168785714Y-81178571D01*
X169071428Y-81178571D01*
X169214285Y-81107142D01*
X169285714Y-81035714D01*
X169357142Y-80892857D01*
X169357142Y-80464285D01*
X169285714Y-80321428D01*
X169214285Y-80250000D01*
X169071428Y-80178571D01*
X168785714Y-80178571D01*
X168642857Y-80250000D01*
X167928571Y-81178571D02*
X167928571Y-79678571D01*
X167285714Y-81178571D02*
X167285714Y-80392857D01*
X167357142Y-80250000D01*
X167500000Y-80178571D01*
X167714285Y-80178571D01*
X167857142Y-80250000D01*
X167928571Y-80321428D01*
X166785714Y-80178571D02*
X166214285Y-80178571D01*
X166571428Y-79678571D02*
X166571428Y-80964285D01*
X166500000Y-81107142D01*
X166357142Y-81178571D01*
X166214285Y-81178571D01*
X165857142Y-81750000D02*
X165785714Y-81678571D01*
X165642857Y-81464285D01*
X165571428Y-81321428D01*
X165500000Y-81107142D01*
X165428571Y-80750000D01*
X165428571Y-80464285D01*
X165500000Y-80107142D01*
X165571428Y-79892857D01*
X165642857Y-79750000D01*
X165785714Y-79535714D01*
X165857142Y-79464285D01*
D11*
X109610000Y-37260000D02*
X127390000Y-37260000D01*
X127390000Y-37260000D02*
X127390000Y-67740000D01*
X127390000Y-67740000D02*
X109610000Y-67740000D01*
X109610000Y-67740000D02*
X109610000Y-37260000D01*
X124850000Y-37260000D02*
X124850000Y-39800000D01*
X124850000Y-39800000D02*
X127390000Y-39800000D01*
D12*
X119429523Y-51338857D02*
X120457619Y-51338857D01*
X120578571Y-51411428D01*
X120639047Y-51484000D01*
X120699523Y-51629142D01*
X120699523Y-51919428D01*
X120639047Y-52064571D01*
X120578571Y-52137142D01*
X120457619Y-52209714D01*
X119429523Y-52209714D01*
X120699523Y-53733714D02*
X120699523Y-52862857D01*
X120699523Y-53298285D02*
X119429523Y-53298285D01*
X119610952Y-53153142D01*
X119731904Y-53008000D01*
X119792380Y-52862857D01*
D13*
X119238095Y-54770380D02*
X119238095Y-53770380D01*
X118666666Y-54770380D02*
X119095238Y-54198952D01*
X118666666Y-53770380D02*
X119238095Y-54341809D01*
X117714285Y-54770380D02*
X118285714Y-54770380D01*
X118000000Y-54770380D02*
X118000000Y-53770380D01*
X118095238Y-53913238D01*
X118190476Y-54008476D01*
X118285714Y-54056095D01*
X142238095Y-44770380D02*
X142238095Y-43770380D01*
X141666666Y-44770380D02*
X142095238Y-44198952D01*
X141666666Y-43770380D02*
X142238095Y-44341809D01*
X141285714Y-43865619D02*
X141238095Y-43818000D01*
X141142857Y-43770380D01*
X140904761Y-43770380D01*
X140809523Y-43818000D01*
X140761904Y-43865619D01*
X140714285Y-43960857D01*
X140714285Y-44056095D01*
X140761904Y-44198952D01*
X141333333Y-44770380D01*
X140714285Y-44770380D01*
X165238095Y-54770380D02*
X165238095Y-53770380D01*
X164666666Y-54770380D02*
X165095238Y-54198952D01*
X164666666Y-53770380D02*
X165238095Y-54341809D01*
X164333333Y-53770380D02*
X163714285Y-53770380D01*
X164047619Y-54151333D01*
X163904761Y-54151333D01*
X163809523Y-54198952D01*
X163761904Y-54246571D01*
X163714285Y-54341809D01*
X163714285Y-54579904D01*
X163761904Y-54675142D01*
X163809523Y-54722761D01*
X163904761Y-54770380D01*
X164190476Y-54770380D01*
X164285714Y-54722761D01*
X164333333Y-54675142D01*
X188238095Y-69770380D02*
X188238095Y-68770380D01*
X187666666Y-69770380D02*
X188095238Y-69198952D01*
X187666666Y-68770380D02*
X188238095Y-69341809D01*
X186809523Y-69103714D02*
X186809523Y-69770380D01*
X187047619Y-68722761D02*
X187285714Y-69437047D01*
X186666666Y-69437047D01*
X131238095Y-100770380D02*
X131238095Y-99770380D01*
X130666666Y-100770380D02*
X131095238Y-100198952D01*
X130666666Y-99770380D02*
X131238095Y-100341809D01*
X129761904Y-99770380D02*
X130238095Y-99770380D01*
X130285714Y-100246571D01*
X130238095Y-100198952D01*
X130142857Y-100151333D01*
X129904761Y-100151333D01*
X129809523Y-100198952D01*
X129761904Y-100246571D01*
X129714285Y-100341809D01*
X129714285Y-100579904D01*
X129761904Y-100675142D01*
X129809523Y-100722761D01*
X129904761Y-100770380D01*
X130142857Y-100770380D01*
X130238095Y-100722761D01*
X130285714Y-100675142D01*
X151238095Y-87770380D02*
X151238095Y-86770380D01*
X150666666Y-87770380D02*
X151095238Y-87198952D01*
X150666666Y-86770380D02*
X151238095Y-87341809D01*
X149809523Y-86770380D02*
X150000000Y-86770380D01*
X150095238Y-86818000D01*
X150142857Y-86865619D01*
X150238095Y-87008476D01*
X150285714Y-87198952D01*
X150285714Y-87579904D01*
X150238095Y-87675142D01*
X150190476Y-87722761D01*
X150095238Y-87770380D01*
X149904761Y-87770380D01*
X149809523Y-87722761D01*
X149761904Y-87675142D01*
X149714285Y-87579904D01*
X149714285Y-87341809D01*
X149761904Y-87246571D01*
X149809523Y-87198952D01*
X149904761Y-87151333D01*
X150095238Y-87151333D01*
X150190476Y-87198952D01*
X150238095Y-87246571D01*
X150285714Y-87341809D01*
X151238095Y-107770380D02*
X151238095Y-106770380D01*
X150666666Y-107770380D02*
X151095238Y-107198952D01*
X150666666Y-106770380D02*
X151238095Y-107341809D01*
X150333333Y-106770380D02*
X149666666Y-106770380D01*
X150095238Y-107770380D01*
X171238095Y-100770380D02*
X171238095Y-99770380D01*
X170666666Y-100770380D02*
X171095238Y-100198952D01*
X170666666Y-99770380D02*
X171238095Y-100341809D01*
X170095238Y-100198952D02*
X170190476Y-100151333D01*
X170238095Y-100103714D01*
X170285714Y-100008476D01*
X170285714Y-99960857D01*
X170238095Y-99865619D01*
X170190476Y-99818000D01*
X170095238Y-99770380D01*
X169904761Y-99770380D01*
X169809523Y-99818000D01*
X169761904Y-99865619D01*
X169714285Y-99960857D01*
X169714285Y-100008476D01*
X169761904Y-100103714D01*
X169809523Y-100151333D01*
X169904761Y-100198952D01*
X170095238Y-100198952D01*
X170190476Y-100246571D01*
X170238095Y-100294190D01*
X170285714Y-100389428D01*
X170285714Y-100579904D01*
X170238095Y-100675142D01*
X170190476Y-100722761D01*
X170095238Y-100770380D01*
X169904761Y-100770380D01*
X169809523Y-100722761D01*
X169761904Y-100675142D01*
X169714285Y-100579904D01*
X169714285Y-100389428D01*
X169761904Y-100294190D01*
X169809523Y-100246571D01*
X169904761Y-100198952D01*
M02*
