M48
; DRILL file {KiCad (5.1.2)-2} date 07-Jul-19 18:05:03
; FORMAT={-:-/ absolute / inch / decimal}
; #@! TF.CreationDate,2019-07-07T18:05:03+10:00
; #@! TF.GenerationSoftware,Kicad,Pcbnew,(5.1.2)-2
; #@! TF.FileFunction,NonPlated,1,2,NPTH
FMAT,2
INCH
T1C0.0670
T2C0.1260
T3C0.1570
%
G90
G05
T1
X6.6764Y-1.9685
X6.5126Y-3.7795
X6.9126Y-3.7795
X4.8654Y-1.9685
X7.1819Y-2.5591
X7.5819Y-2.5591
X5.7252Y-3.2677
X6.1252Y-3.2677
X6.2764Y-1.9685
X5.7252Y-4.0551
X6.1252Y-4.0551
X4.9378Y-3.7795
X5.3378Y-3.7795
X5.3709Y-1.5748
X5.7709Y-1.5748
X4.4654Y-1.9685
T2
X5.8858Y-2.5
X7.7264Y-1.3287
X5.0197Y-4.3012
X4.4291Y-2.8937
X5.2559Y-2.5
X7.7264Y-4.3012
T3
X5.9252Y-3.2677
X5.9252Y-4.0551
X6.7126Y-3.7795
X5.1378Y-3.7795
X7.3819Y-2.5591
X6.4764Y-1.9685
X5.5709Y-1.5748
X4.6654Y-1.9685
T0
M30
