M48
INCH,TZ
T1C0.028
T2C0.039
T3C0.039
T4C0.043
T5C0.059
%
G90
G05
T1
X4.2461Y-1.3681
X4.4823Y-2.3425
X4.5531Y-1.3681
X4.7894Y-2.3425
X5.5118Y-3.5965
X5.5118Y-3.9035
X6.2638Y-1.5945
X6.2992Y-3.0846
X6.2992Y-3.3917
X6.2992Y-3.872
X6.2992Y-4.1791
X6.5709Y-1.5945
X7.0866Y-3.5965
X7.0866Y-3.9035
X7.1693Y-2.185
X7.4764Y-2.185
T2
X4.1339Y-1.3091
X4.1339Y-1.4091
X4.1339Y-1.5091
X4.1339Y-1.6091
X4.1339Y-1.7091
X4.1339Y-1.8091
X4.1339Y-1.9091
X4.1339Y-2.0091
X4.1339Y-2.1091
X4.1339Y-2.2091
X4.1339Y-2.4114
X4.1339Y-2.5114
X4.1339Y-2.6114
X4.1339Y-2.7114
X4.1339Y-2.8114
X4.1339Y-2.9114
X4.1339Y-3.0114
X4.1339Y-3.1114
X4.1339Y-3.2114
X4.1339Y-3.3114
X4.252Y-1.2697
X4.4882Y-1.5059
X4.4882Y-1.6142
X4.5882Y-1.5059
X4.5882Y-1.6142
X5.4087Y-2.0571
X5.5087Y-2.0571
X5.6087Y-2.0571
X5.7087Y-2.0571
T3
X4.2618Y-3.1496
X4.2618Y-3.3071
X4.6556Y-3.1496
X4.6556Y-3.3071
X5.1181Y-1.6141
X5.1181Y-2.0079
T4
X4.3654Y-1.5169
X4.3654Y-1.6169
X4.3654Y-1.7169
X4.3654Y-1.8169
X4.3654Y-1.9169
X4.3654Y-2.0169
X4.3654Y-2.1169
X4.3654Y-2.2169
X4.3654Y-2.3169
X4.3654Y-2.4169
X4.3654Y-2.5169
X4.3654Y-2.6169
X4.9654Y-1.5169
X4.9654Y-1.6169
X4.9654Y-1.7169
X4.9654Y-1.8169
X4.9654Y-1.9169
X4.9654Y-2.0169
X4.9654Y-2.1169
X4.9654Y-2.2169
X4.9654Y-2.3169
X4.9654Y-2.4169
X4.9654Y-2.5169
X4.9654Y-2.6169
T5
X4.5473Y-1.811G85X4.5153Y-1.8685
G05
X4.7653Y-1.7685G85X4.7638Y-1.7913
G05
X5.0197Y-3.622G85X4.9878Y-3.6795
G05
X5.2378Y-3.5796G85X5.2362Y-3.6023
G05
X5.4528Y-1.4173G85X5.4208Y-1.4748
G05
X5.6709Y-1.3748G85X5.6693Y-1.3976
G05
X5.8071Y-3.1102G85X5.7752Y-3.1677
G05
X5.8071Y-3.8976G85X5.7752Y-3.9551
G05
X6.0252Y-3.0677G85X6.0236Y-3.0905
G05
X6.0252Y-3.8551G85X6.0236Y-3.8779
G05
X6.3583Y-1.811G85X6.3264Y-1.8685
G05
X6.5764Y-1.7685G85X6.5748Y-1.7913
G05
X6.5945Y-3.622G85X6.5626Y-3.6795
G05
X6.8126Y-3.5796G85X6.811Y-3.6023
G05
X7.2638Y-2.4016G85X7.2319Y-2.4591
G05
X7.4819Y-2.3591G85X7.4803Y-2.3819
G05
T0
M30
