G04 #@! TF.GenerationSoftware,KiCad,Pcbnew,(5.1.2)-2*
G04 #@! TF.CreationDate,2019-07-07T18:03:19+10:00*
G04 #@! TF.ProjectId,Left_Combined_Micro,4c656674-5f43-46f6-9d62-696e65645f4d,rev?*
G04 #@! TF.SameCoordinates,Original*
G04 #@! TF.FileFunction,Legend,Top*
G04 #@! TF.FilePolarity,Positive*
%FSLAX46Y46*%
G04 Gerber Fmt 4.6, Leading zero omitted, Abs format (unit mm)*
G04 Created by KiCad (PCBNEW (5.1.2)-2) date 2019-07-07 18:03:19*
%MOMM*%
%LPD*%
G04 APERTURE LIST*
%ADD10C,0.200000*%
%ADD11C,0.120000*%
%ADD12C,0.381000*%
%ADD13C,0.150000*%
G04 APERTURE END LIST*
D10*
X185200000Y-33475000D02*
X182800000Y-33475000D01*
X185200000Y-33300000D02*
X182800000Y-33300000D01*
X185200000Y-33125000D02*
X182800000Y-33125000D01*
X182800000Y-32725000D02*
X185200000Y-32725000D01*
X185200000Y-32950000D02*
X182800000Y-32950000D01*
X185200000Y-32825000D02*
X182800000Y-32825000D01*
X185200000Y-32750000D02*
X185200000Y-38550000D01*
X185200000Y-38550000D02*
X182800000Y-38550000D01*
X182800000Y-38550000D02*
X182800000Y-32750000D01*
X166550000Y-41525000D02*
X168950000Y-41525000D01*
X166550000Y-41700000D02*
X168950000Y-41700000D01*
X166550000Y-41875000D02*
X168950000Y-41875000D01*
X168950000Y-42275000D02*
X166550000Y-42275000D01*
X166550000Y-42050000D02*
X168950000Y-42050000D01*
X166550000Y-42175000D02*
X168950000Y-42175000D01*
X166550000Y-42250000D02*
X166550000Y-36450000D01*
X166550000Y-36450000D02*
X168950000Y-36450000D01*
X168950000Y-36450000D02*
X168950000Y-42250000D01*
X143550000Y-51525000D02*
X145950000Y-51525000D01*
X143550000Y-51700000D02*
X145950000Y-51700000D01*
X143550000Y-51875000D02*
X145950000Y-51875000D01*
X145950000Y-52275000D02*
X143550000Y-52275000D01*
X143550000Y-52050000D02*
X145950000Y-52050000D01*
X143550000Y-52175000D02*
X145950000Y-52175000D01*
X143550000Y-52250000D02*
X143550000Y-46450000D01*
X143550000Y-46450000D02*
X145950000Y-46450000D01*
X145950000Y-46450000D02*
X145950000Y-52250000D01*
X120550000Y-66525000D02*
X122950000Y-66525000D01*
X120550000Y-66700000D02*
X122950000Y-66700000D01*
X120550000Y-66875000D02*
X122950000Y-66875000D01*
X122950000Y-67275000D02*
X120550000Y-67275000D01*
X120550000Y-67050000D02*
X122950000Y-67050000D01*
X120550000Y-67175000D02*
X122950000Y-67175000D01*
X120550000Y-67250000D02*
X120550000Y-61450000D01*
X120550000Y-61450000D02*
X122950000Y-61450000D01*
X122950000Y-61450000D02*
X122950000Y-67250000D01*
X177550000Y-89525000D02*
X179950000Y-89525000D01*
X177550000Y-89700000D02*
X179950000Y-89700000D01*
X177550000Y-89875000D02*
X179950000Y-89875000D01*
X179950000Y-90275000D02*
X177550000Y-90275000D01*
X177550000Y-90050000D02*
X179950000Y-90050000D01*
X177550000Y-90175000D02*
X179950000Y-90175000D01*
X177550000Y-90250000D02*
X177550000Y-84450000D01*
X177550000Y-84450000D02*
X179950000Y-84450000D01*
X179950000Y-84450000D02*
X179950000Y-90250000D01*
X157550000Y-89525000D02*
X159950000Y-89525000D01*
X157550000Y-89700000D02*
X159950000Y-89700000D01*
X157550000Y-89875000D02*
X159950000Y-89875000D01*
X159950000Y-90275000D02*
X157550000Y-90275000D01*
X157550000Y-90050000D02*
X159950000Y-90050000D01*
X157550000Y-90175000D02*
X159950000Y-90175000D01*
X157550000Y-90250000D02*
X157550000Y-84450000D01*
X157550000Y-84450000D02*
X159950000Y-84450000D01*
X159950000Y-84450000D02*
X159950000Y-90250000D01*
X137550000Y-89525000D02*
X139950000Y-89525000D01*
X137550000Y-89700000D02*
X139950000Y-89700000D01*
X137550000Y-89875000D02*
X139950000Y-89875000D01*
X139950000Y-90275000D02*
X137550000Y-90275000D01*
X137550000Y-90050000D02*
X139950000Y-90050000D01*
X137550000Y-90175000D02*
X139950000Y-90175000D01*
X137550000Y-90250000D02*
X137550000Y-84450000D01*
X137550000Y-84450000D02*
X139950000Y-84450000D01*
X139950000Y-84450000D02*
X139950000Y-90250000D01*
D11*
X196190000Y-31170000D02*
X196190000Y-56690000D01*
X196190000Y-56690000D02*
X198850000Y-56690000D01*
X198850000Y-56690000D02*
X198850000Y-31170000D01*
X198850000Y-31170000D02*
X196190000Y-31170000D01*
X198850000Y-32120000D02*
X204850000Y-32120000D01*
X204850000Y-32120000D02*
X204850000Y-32880000D01*
X204850000Y-32880000D02*
X198850000Y-32880000D01*
X198850000Y-32180000D02*
X204850000Y-32180000D01*
X198850000Y-32300000D02*
X204850000Y-32300000D01*
X198850000Y-32420000D02*
X204850000Y-32420000D01*
X198850000Y-32540000D02*
X204850000Y-32540000D01*
X198850000Y-32660000D02*
X204850000Y-32660000D01*
X198850000Y-32780000D02*
X204850000Y-32780000D01*
X195860000Y-32120000D02*
X196190000Y-32120000D01*
X195860000Y-32880000D02*
X196190000Y-32880000D01*
X196190000Y-33770000D02*
X198850000Y-33770000D01*
X198850000Y-34660000D02*
X204850000Y-34660000D01*
X204850000Y-34660000D02*
X204850000Y-35420000D01*
X204850000Y-35420000D02*
X198850000Y-35420000D01*
X195792929Y-34660000D02*
X196190000Y-34660000D01*
X195792929Y-35420000D02*
X196190000Y-35420000D01*
X196190000Y-36310000D02*
X198850000Y-36310000D01*
X198850000Y-37200000D02*
X204850000Y-37200000D01*
X204850000Y-37200000D02*
X204850000Y-37960000D01*
X204850000Y-37960000D02*
X198850000Y-37960000D01*
X195792929Y-37200000D02*
X196190000Y-37200000D01*
X195792929Y-37960000D02*
X196190000Y-37960000D01*
X196190000Y-38850000D02*
X198850000Y-38850000D01*
X198850000Y-39740000D02*
X204850000Y-39740000D01*
X204850000Y-39740000D02*
X204850000Y-40500000D01*
X204850000Y-40500000D02*
X198850000Y-40500000D01*
X195792929Y-39740000D02*
X196190000Y-39740000D01*
X195792929Y-40500000D02*
X196190000Y-40500000D01*
X196190000Y-41390000D02*
X198850000Y-41390000D01*
X198850000Y-42280000D02*
X204850000Y-42280000D01*
X204850000Y-42280000D02*
X204850000Y-43040000D01*
X204850000Y-43040000D02*
X198850000Y-43040000D01*
X195792929Y-42280000D02*
X196190000Y-42280000D01*
X195792929Y-43040000D02*
X196190000Y-43040000D01*
X196190000Y-43930000D02*
X198850000Y-43930000D01*
X198850000Y-44820000D02*
X204850000Y-44820000D01*
X204850000Y-44820000D02*
X204850000Y-45580000D01*
X204850000Y-45580000D02*
X198850000Y-45580000D01*
X195792929Y-44820000D02*
X196190000Y-44820000D01*
X195792929Y-45580000D02*
X196190000Y-45580000D01*
X196190000Y-46470000D02*
X198850000Y-46470000D01*
X198850000Y-47360000D02*
X204850000Y-47360000D01*
X204850000Y-47360000D02*
X204850000Y-48120000D01*
X204850000Y-48120000D02*
X198850000Y-48120000D01*
X195792929Y-47360000D02*
X196190000Y-47360000D01*
X195792929Y-48120000D02*
X196190000Y-48120000D01*
X196190000Y-49010000D02*
X198850000Y-49010000D01*
X198850000Y-49900000D02*
X204850000Y-49900000D01*
X204850000Y-49900000D02*
X204850000Y-50660000D01*
X204850000Y-50660000D02*
X198850000Y-50660000D01*
X195792929Y-49900000D02*
X196190000Y-49900000D01*
X195792929Y-50660000D02*
X196190000Y-50660000D01*
X196190000Y-51550000D02*
X198850000Y-51550000D01*
X198850000Y-52440000D02*
X204850000Y-52440000D01*
X204850000Y-52440000D02*
X204850000Y-53200000D01*
X204850000Y-53200000D02*
X198850000Y-53200000D01*
X195792929Y-52440000D02*
X196190000Y-52440000D01*
X195792929Y-53200000D02*
X196190000Y-53200000D01*
X196190000Y-54090000D02*
X198850000Y-54090000D01*
X198850000Y-54980000D02*
X204850000Y-54980000D01*
X204850000Y-54980000D02*
X204850000Y-55740000D01*
X204850000Y-55740000D02*
X198850000Y-55740000D01*
X195792929Y-54980000D02*
X196190000Y-54980000D01*
X195792929Y-55740000D02*
X196190000Y-55740000D01*
X193480000Y-32500000D02*
X193480000Y-31230000D01*
X193480000Y-31230000D02*
X194750000Y-31230000D01*
X153550000Y-50920000D02*
X153550000Y-53580000D01*
X161230000Y-50920000D02*
X153550000Y-50920000D01*
X161230000Y-53580000D02*
X153550000Y-53580000D01*
X161230000Y-50920000D02*
X161230000Y-53580000D01*
X162500000Y-50920000D02*
X163830000Y-50920000D01*
X163830000Y-50920000D02*
X163830000Y-52250000D01*
D12*
X175150000Y-43650000D02*
X176928000Y-43650000D01*
X186072000Y-43650000D02*
X187850000Y-43650000D01*
X187850000Y-43650000D02*
X187850000Y-45428000D01*
X187850000Y-54572000D02*
X187850000Y-56350000D01*
X187850000Y-56350000D02*
X186072000Y-56350000D01*
X176928000Y-56350000D02*
X175150000Y-56350000D01*
X175150000Y-56350000D02*
X175150000Y-54572000D01*
X175150000Y-45428000D02*
X175150000Y-43650000D01*
X152150000Y-33650000D02*
X153928000Y-33650000D01*
X163072000Y-33650000D02*
X164850000Y-33650000D01*
X164850000Y-33650000D02*
X164850000Y-35428000D01*
X164850000Y-44572000D02*
X164850000Y-46350000D01*
X164850000Y-46350000D02*
X163072000Y-46350000D01*
X153928000Y-46350000D02*
X152150000Y-46350000D01*
X152150000Y-46350000D02*
X152150000Y-44572000D01*
X152150000Y-35428000D02*
X152150000Y-33650000D01*
X129150000Y-43650000D02*
X130928000Y-43650000D01*
X140072000Y-43650000D02*
X141850000Y-43650000D01*
X141850000Y-43650000D02*
X141850000Y-45428000D01*
X141850000Y-54572000D02*
X141850000Y-56350000D01*
X141850000Y-56350000D02*
X140072000Y-56350000D01*
X130928000Y-56350000D02*
X129150000Y-56350000D01*
X129150000Y-56350000D02*
X129150000Y-54572000D01*
X129150000Y-45428000D02*
X129150000Y-43650000D01*
X106150000Y-58650000D02*
X107928000Y-58650000D01*
X117072000Y-58650000D02*
X118850000Y-58650000D01*
X118850000Y-58650000D02*
X118850000Y-60428000D01*
X118850000Y-69572000D02*
X118850000Y-71350000D01*
X118850000Y-71350000D02*
X117072000Y-71350000D01*
X107928000Y-71350000D02*
X106150000Y-71350000D01*
X106150000Y-71350000D02*
X106150000Y-69572000D01*
X106150000Y-60428000D02*
X106150000Y-58650000D01*
X163150000Y-81650000D02*
X164928000Y-81650000D01*
X174072000Y-81650000D02*
X175850000Y-81650000D01*
X175850000Y-81650000D02*
X175850000Y-83428000D01*
X175850000Y-92572000D02*
X175850000Y-94350000D01*
X175850000Y-94350000D02*
X174072000Y-94350000D01*
X164928000Y-94350000D02*
X163150000Y-94350000D01*
X163150000Y-94350000D02*
X163150000Y-92572000D01*
X163150000Y-83428000D02*
X163150000Y-81650000D01*
X143150000Y-81650000D02*
X144928000Y-81650000D01*
X154072000Y-81650000D02*
X155850000Y-81650000D01*
X155850000Y-81650000D02*
X155850000Y-83428000D01*
X155850000Y-92572000D02*
X155850000Y-94350000D01*
X155850000Y-94350000D02*
X154072000Y-94350000D01*
X144928000Y-94350000D02*
X143150000Y-94350000D01*
X143150000Y-94350000D02*
X143150000Y-92572000D01*
X143150000Y-83428000D02*
X143150000Y-81650000D01*
X123150000Y-81650000D02*
X124928000Y-81650000D01*
X134072000Y-81650000D02*
X135850000Y-81650000D01*
X135850000Y-81650000D02*
X135850000Y-83428000D01*
X135850000Y-92572000D02*
X135850000Y-94350000D01*
X135850000Y-94350000D02*
X134072000Y-94350000D01*
X124928000Y-94350000D02*
X123150000Y-94350000D01*
X123150000Y-94350000D02*
X123150000Y-92572000D01*
X123150000Y-83428000D02*
X123150000Y-81650000D01*
D13*
X182436904Y-36340476D02*
X181636904Y-36340476D01*
X181636904Y-36150000D01*
X181675000Y-36035714D01*
X181751190Y-35959523D01*
X181827380Y-35921428D01*
X181979761Y-35883333D01*
X182094047Y-35883333D01*
X182246428Y-35921428D01*
X182322619Y-35959523D01*
X182398809Y-36035714D01*
X182436904Y-36150000D01*
X182436904Y-36340476D01*
X182436904Y-35121428D02*
X182436904Y-35578571D01*
X182436904Y-35350000D02*
X181636904Y-35350000D01*
X181751190Y-35426190D01*
X181827380Y-35502380D01*
X181865476Y-35578571D01*
X170036904Y-39840476D02*
X169236904Y-39840476D01*
X169236904Y-39650000D01*
X169275000Y-39535714D01*
X169351190Y-39459523D01*
X169427380Y-39421428D01*
X169579761Y-39383333D01*
X169694047Y-39383333D01*
X169846428Y-39421428D01*
X169922619Y-39459523D01*
X169998809Y-39535714D01*
X170036904Y-39650000D01*
X170036904Y-39840476D01*
X169313095Y-39078571D02*
X169275000Y-39040476D01*
X169236904Y-38964285D01*
X169236904Y-38773809D01*
X169275000Y-38697619D01*
X169313095Y-38659523D01*
X169389285Y-38621428D01*
X169465476Y-38621428D01*
X169579761Y-38659523D01*
X170036904Y-39116666D01*
X170036904Y-38621428D01*
X147036904Y-49840476D02*
X146236904Y-49840476D01*
X146236904Y-49650000D01*
X146275000Y-49535714D01*
X146351190Y-49459523D01*
X146427380Y-49421428D01*
X146579761Y-49383333D01*
X146694047Y-49383333D01*
X146846428Y-49421428D01*
X146922619Y-49459523D01*
X146998809Y-49535714D01*
X147036904Y-49650000D01*
X147036904Y-49840476D01*
X146236904Y-49116666D02*
X146236904Y-48621428D01*
X146541666Y-48888095D01*
X146541666Y-48773809D01*
X146579761Y-48697619D01*
X146617857Y-48659523D01*
X146694047Y-48621428D01*
X146884523Y-48621428D01*
X146960714Y-48659523D01*
X146998809Y-48697619D01*
X147036904Y-48773809D01*
X147036904Y-49002380D01*
X146998809Y-49078571D01*
X146960714Y-49116666D01*
X124036904Y-64840476D02*
X123236904Y-64840476D01*
X123236904Y-64650000D01*
X123275000Y-64535714D01*
X123351190Y-64459523D01*
X123427380Y-64421428D01*
X123579761Y-64383333D01*
X123694047Y-64383333D01*
X123846428Y-64421428D01*
X123922619Y-64459523D01*
X123998809Y-64535714D01*
X124036904Y-64650000D01*
X124036904Y-64840476D01*
X123503571Y-63697619D02*
X124036904Y-63697619D01*
X123198809Y-63888095D02*
X123770238Y-64078571D01*
X123770238Y-63583333D01*
X181036904Y-87840476D02*
X180236904Y-87840476D01*
X180236904Y-87650000D01*
X180275000Y-87535714D01*
X180351190Y-87459523D01*
X180427380Y-87421428D01*
X180579761Y-87383333D01*
X180694047Y-87383333D01*
X180846428Y-87421428D01*
X180922619Y-87459523D01*
X180998809Y-87535714D01*
X181036904Y-87650000D01*
X181036904Y-87840476D01*
X180236904Y-86659523D02*
X180236904Y-87040476D01*
X180617857Y-87078571D01*
X180579761Y-87040476D01*
X180541666Y-86964285D01*
X180541666Y-86773809D01*
X180579761Y-86697619D01*
X180617857Y-86659523D01*
X180694047Y-86621428D01*
X180884523Y-86621428D01*
X180960714Y-86659523D01*
X180998809Y-86697619D01*
X181036904Y-86773809D01*
X181036904Y-86964285D01*
X180998809Y-87040476D01*
X180960714Y-87078571D01*
X161036904Y-87840476D02*
X160236904Y-87840476D01*
X160236904Y-87650000D01*
X160275000Y-87535714D01*
X160351190Y-87459523D01*
X160427380Y-87421428D01*
X160579761Y-87383333D01*
X160694047Y-87383333D01*
X160846428Y-87421428D01*
X160922619Y-87459523D01*
X160998809Y-87535714D01*
X161036904Y-87650000D01*
X161036904Y-87840476D01*
X160236904Y-86697619D02*
X160236904Y-86850000D01*
X160275000Y-86926190D01*
X160313095Y-86964285D01*
X160427380Y-87040476D01*
X160579761Y-87078571D01*
X160884523Y-87078571D01*
X160960714Y-87040476D01*
X160998809Y-87002380D01*
X161036904Y-86926190D01*
X161036904Y-86773809D01*
X160998809Y-86697619D01*
X160960714Y-86659523D01*
X160884523Y-86621428D01*
X160694047Y-86621428D01*
X160617857Y-86659523D01*
X160579761Y-86697619D01*
X160541666Y-86773809D01*
X160541666Y-86926190D01*
X160579761Y-87002380D01*
X160617857Y-87040476D01*
X160694047Y-87078571D01*
X141036904Y-87840476D02*
X140236904Y-87840476D01*
X140236904Y-87650000D01*
X140275000Y-87535714D01*
X140351190Y-87459523D01*
X140427380Y-87421428D01*
X140579761Y-87383333D01*
X140694047Y-87383333D01*
X140846428Y-87421428D01*
X140922619Y-87459523D01*
X140998809Y-87535714D01*
X141036904Y-87650000D01*
X141036904Y-87840476D01*
X140236904Y-87116666D02*
X140236904Y-86583333D01*
X141036904Y-86926190D01*
X198801666Y-29682380D02*
X198801666Y-30396666D01*
X198754047Y-30539523D01*
X198658809Y-30634761D01*
X198515952Y-30682380D01*
X198420714Y-30682380D01*
X199801666Y-30682380D02*
X199230238Y-30682380D01*
X199515952Y-30682380D02*
X199515952Y-29682380D01*
X199420714Y-29825238D01*
X199325476Y-29920476D01*
X199230238Y-29968095D01*
X164282380Y-52583333D02*
X164996666Y-52583333D01*
X165139523Y-52630952D01*
X165234761Y-52726190D01*
X165282380Y-52869047D01*
X165282380Y-52964285D01*
X164377619Y-52154761D02*
X164330000Y-52107142D01*
X164282380Y-52011904D01*
X164282380Y-51773809D01*
X164330000Y-51678571D01*
X164377619Y-51630952D01*
X164472857Y-51583333D01*
X164568095Y-51583333D01*
X164710952Y-51630952D01*
X165282380Y-52202380D01*
X165282380Y-51583333D01*
M02*
