M48
INCH,TZ
T1C0.028
T2C0.039
T3C0.059
%
G90
G05
T1
X4.7933Y-2.376
X4.7933Y-2.6831
X5.4626Y-3.2815
X5.4626Y-3.5886
X5.6988Y-1.7854
X5.6988Y-2.0925
X6.25Y-3.2815
X6.25Y-3.5886
X6.6043Y-1.3917
X6.6043Y-1.6988
X7.0374Y-3.2815
X7.0374Y-3.5886
X7.2441Y-1.2539
X7.2441Y-1.561
T2
X6.0976Y-2.0571
X6.1976Y-2.0571
X6.2976Y-2.0571
X6.3976Y-2.0571
X7.6673Y-1.2795
X7.6673Y-1.3795
X7.6673Y-1.4795
X7.6673Y-1.5795
X7.6673Y-1.6795
X7.6673Y-1.7795
X7.6673Y-1.8795
X7.6673Y-1.9795
X7.6673Y-2.0795
X7.6673Y-2.1795
T3
X4.311Y-2.4016G85X4.2791Y-2.4591
G05
X4.5291Y-2.3591G85X4.5276Y-2.3819
G05
X4.9803Y-3.3071G85X4.9484Y-3.3646
G05
X5.1984Y-3.2646G85X5.1969Y-3.2874
G05
X5.2166Y-1.811G85X5.1846Y-1.8685
G05
X5.4346Y-1.7685G85X5.4331Y-1.7913
G05
X5.7677Y-3.3071G85X5.7358Y-3.3646
G05
X5.9858Y-3.2646G85X5.9843Y-3.2874
G05
X6.1221Y-1.4173G85X6.0901Y-1.4748
G05
X6.3401Y-1.3748G85X6.3386Y-1.3976
G05
X6.5551Y-3.3071G85X6.5232Y-3.3646
G05
X6.7732Y-3.2646G85X6.7717Y-3.2874
G05
X7.0276Y-1.811G85X6.9957Y-1.8685
G05
X7.2457Y-1.7685G85X7.2441Y-1.7913
G05
T0
M30
