M48
; DRILL file {KiCad (5.1.2)-2} date 07-Jul-19 18:03:23
; FORMAT={-:-/ absolute / inch / decimal}
; #@! TF.CreationDate,2019-07-07T18:03:23+10:00
; #@! TF.GenerationSoftware,Kicad,Pcbnew,(5.1.2)-2
; #@! TF.FileFunction,NonPlated,1,2,NPTH
FMAT,2
INCH
T1C0.0670
T2C0.1260
T3C0.1570
%
G90
G05
T1
X6.8732Y-3.4646
X5.2984Y-3.4646
X5.1346Y-1.9685
X6.9457Y-1.9685
X7.3457Y-1.9685
X5.6858Y-3.4646
X6.0858Y-3.4646
X4.2291Y-2.5591
X4.6291Y-2.5591
X6.0402Y-1.5748
X6.4402Y-1.5748
X6.4732Y-3.4646
X4.8984Y-3.4646
X5.5346Y-1.9685
T2
X4.0846Y-4.3012
X5.9252Y-2.5
X6.7815Y-4.3012
X6.5551Y-2.5
X7.3819Y-2.8937
X4.0846Y-1.3287
T3
X5.8858Y-3.4646
X4.4291Y-2.5591
X6.6732Y-3.4646
X5.0984Y-3.4646
X5.3346Y-1.9685
X7.1457Y-1.9685
X6.2402Y-1.5748
T0
M30
