G04 #@! TF.FileFunction,Soldermask,Bot*
%FSLAX46Y46*%
G04 Gerber Fmt 4.6, Leading zero omitted, Abs format (unit mm)*
G04 Created by KiCad (PCBNEW 4.0.7) date 12/09/17 16:12:22*
%MOMM*%
%LPD*%
G01*
G04 APERTURE LIST*
%ADD10C,0.100000*%
%ADD11C,3.600000*%
%ADD12R,2.000000X2.000000*%
%ADD13C,2.000000*%
%ADD14R,2.100000X2.100000*%
%ADD15O,2.100000X2.100000*%
%ADD16C,2.900000*%
G04 APERTURE END LIST*
D10*
D11*
X187500000Y-73500000D03*
X172250000Y-109250000D03*
X103750000Y-109250000D03*
D12*
X184000000Y-31850000D03*
D13*
X184000000Y-39650000D03*
D12*
X167750000Y-43150000D03*
D13*
X167750000Y-35350000D03*
D12*
X144750000Y-53150000D03*
D13*
X144750000Y-45350000D03*
D12*
X121750000Y-68150000D03*
D13*
X121750000Y-60350000D03*
D12*
X178750000Y-91150000D03*
D13*
X178750000Y-83350000D03*
D12*
X158750000Y-91150000D03*
D13*
X158750000Y-83350000D03*
D12*
X138750000Y-91150000D03*
D13*
X138750000Y-83350000D03*
D14*
X194750000Y-32500000D03*
D15*
X194750000Y-35040000D03*
X194750000Y-37580000D03*
X194750000Y-40120000D03*
X194750000Y-42660000D03*
X194750000Y-45200000D03*
X194750000Y-47740000D03*
X194750000Y-50280000D03*
X194750000Y-52820000D03*
X194750000Y-55360000D03*
D14*
X162500000Y-52250000D03*
D15*
X159960000Y-52250000D03*
X157420000Y-52250000D03*
X154880000Y-52250000D03*
D16*
X178500453Y-46000046D02*
X177689547Y-47459954D01*
X184039724Y-44920672D02*
X184000276Y-45499328D01*
X155500453Y-36000046D02*
X154689547Y-37459954D01*
X161039724Y-34920672D02*
X161000276Y-35499328D01*
X132500453Y-46000046D02*
X131689547Y-47459954D01*
X138039724Y-44920672D02*
X138000276Y-45499328D01*
X109500453Y-61000046D02*
X108689547Y-62459954D01*
X115039724Y-59920672D02*
X115000276Y-60499328D01*
X166500453Y-84000046D02*
X165689547Y-85459954D01*
X172039724Y-82920672D02*
X172000276Y-83499328D01*
X146500453Y-84000046D02*
X145689547Y-85459954D01*
X152039724Y-82920672D02*
X152000276Y-83499328D01*
X126500453Y-84000046D02*
X125689547Y-85459954D01*
X132039724Y-82920672D02*
X132000276Y-83499328D01*
D11*
X166500000Y-63500000D03*
X150500000Y-63500000D03*
X103750000Y-33750000D03*
M02*
