G04 #@! TF.GenerationSoftware,KiCad,Pcbnew,(5.1.2)-2*
G04 #@! TF.CreationDate,2019-07-07T18:03:19+10:00*
G04 #@! TF.ProjectId,Left_Combined_Micro,4c656674-5f43-46f6-9d62-696e65645f4d,rev?*
G04 #@! TF.SameCoordinates,Original*
G04 #@! TF.FileFunction,Legend,Bot*
G04 #@! TF.FilePolarity,Positive*
%FSLAX46Y46*%
G04 Gerber Fmt 4.6, Leading zero omitted, Abs format (unit mm)*
G04 Created by KiCad (PCBNEW (5.1.2)-2) date 2019-07-07 18:03:19*
%MOMM*%
%LPD*%
G04 APERTURE LIST*
%ADD10C,0.300000*%
%ADD11C,0.200000*%
G04 APERTURE END LIST*
D10*
X126500000Y-111428571D02*
X126500000Y-109928571D01*
X125642857Y-111428571D02*
X126285714Y-110571428D01*
X125642857Y-109928571D02*
X126500000Y-110785714D01*
X125000000Y-110857142D02*
X123857142Y-110857142D01*
X122285714Y-111285714D02*
X122357142Y-111357142D01*
X122571428Y-111428571D01*
X122714285Y-111428571D01*
X122928571Y-111357142D01*
X123071428Y-111214285D01*
X123142857Y-111071428D01*
X123214285Y-110785714D01*
X123214285Y-110571428D01*
X123142857Y-110285714D01*
X123071428Y-110142857D01*
X122928571Y-110000000D01*
X122714285Y-109928571D01*
X122571428Y-109928571D01*
X122357142Y-110000000D01*
X122285714Y-110071428D01*
X121642857Y-111428571D02*
X121642857Y-109928571D01*
X121000000Y-111428571D02*
X121000000Y-110642857D01*
X121071428Y-110500000D01*
X121214285Y-110428571D01*
X121428571Y-110428571D01*
X121571428Y-110500000D01*
X121642857Y-110571428D01*
X120071428Y-111428571D02*
X120214285Y-111357142D01*
X120285714Y-111285714D01*
X120357142Y-111142857D01*
X120357142Y-110714285D01*
X120285714Y-110571428D01*
X120214285Y-110500000D01*
X120071428Y-110428571D01*
X119857142Y-110428571D01*
X119714285Y-110500000D01*
X119642857Y-110571428D01*
X119571428Y-110714285D01*
X119571428Y-111142857D01*
X119642857Y-111285714D01*
X119714285Y-111357142D01*
X119857142Y-111428571D01*
X120071428Y-111428571D01*
X118928571Y-111428571D02*
X118928571Y-110428571D01*
X118928571Y-110714285D02*
X118857142Y-110571428D01*
X118785714Y-110500000D01*
X118642857Y-110428571D01*
X118500000Y-110428571D01*
X117357142Y-111428571D02*
X117357142Y-109928571D01*
X117357142Y-111357142D02*
X117500000Y-111428571D01*
X117785714Y-111428571D01*
X117928571Y-111357142D01*
X118000000Y-111285714D01*
X118071428Y-111142857D01*
X118071428Y-110714285D01*
X118000000Y-110571428D01*
X117928571Y-110500000D01*
X117785714Y-110428571D01*
X117500000Y-110428571D01*
X117357142Y-110500000D01*
X115000000Y-110642857D02*
X114785714Y-110714285D01*
X114714285Y-110785714D01*
X114642857Y-110928571D01*
X114642857Y-111142857D01*
X114714285Y-111285714D01*
X114785714Y-111357142D01*
X114928571Y-111428571D01*
X115500000Y-111428571D01*
X115500000Y-109928571D01*
X115000000Y-109928571D01*
X114857142Y-110000000D01*
X114785714Y-110071428D01*
X114714285Y-110214285D01*
X114714285Y-110357142D01*
X114785714Y-110500000D01*
X114857142Y-110571428D01*
X115000000Y-110642857D01*
X115500000Y-110642857D01*
X114000000Y-111428571D02*
X114000000Y-110428571D01*
X114000000Y-110714285D02*
X113928571Y-110571428D01*
X113857142Y-110500000D01*
X113714285Y-110428571D01*
X113571428Y-110428571D01*
X112428571Y-111428571D02*
X112428571Y-109928571D01*
X112428571Y-111357142D02*
X112571428Y-111428571D01*
X112857142Y-111428571D01*
X113000000Y-111357142D01*
X113071428Y-111285714D01*
X113142857Y-111142857D01*
X113142857Y-110714285D01*
X113071428Y-110571428D01*
X113000000Y-110500000D01*
X112857142Y-110428571D01*
X112571428Y-110428571D01*
X112428571Y-110500000D01*
X111785714Y-110071428D02*
X111714285Y-110000000D01*
X111571428Y-109928571D01*
X111214285Y-109928571D01*
X111071428Y-110000000D01*
X111000000Y-110071428D01*
X110928571Y-110214285D01*
X110928571Y-110357142D01*
X111000000Y-110571428D01*
X111857142Y-111428571D01*
X110928571Y-111428571D01*
D11*
X182238095Y-54770380D02*
X182238095Y-53770380D01*
X181666666Y-54770380D02*
X182095238Y-54198952D01*
X181666666Y-53770380D02*
X182238095Y-54341809D01*
X180714285Y-54770380D02*
X181285714Y-54770380D01*
X181000000Y-54770380D02*
X181000000Y-53770380D01*
X181095238Y-53913238D01*
X181190476Y-54008476D01*
X181285714Y-54056095D01*
X159238095Y-44770380D02*
X159238095Y-43770380D01*
X158666666Y-44770380D02*
X159095238Y-44198952D01*
X158666666Y-43770380D02*
X159238095Y-44341809D01*
X158285714Y-43865619D02*
X158238095Y-43818000D01*
X158142857Y-43770380D01*
X157904761Y-43770380D01*
X157809523Y-43818000D01*
X157761904Y-43865619D01*
X157714285Y-43960857D01*
X157714285Y-44056095D01*
X157761904Y-44198952D01*
X158333333Y-44770380D01*
X157714285Y-44770380D01*
X136238095Y-54770380D02*
X136238095Y-53770380D01*
X135666666Y-54770380D02*
X136095238Y-54198952D01*
X135666666Y-53770380D02*
X136238095Y-54341809D01*
X135333333Y-53770380D02*
X134714285Y-53770380D01*
X135047619Y-54151333D01*
X134904761Y-54151333D01*
X134809523Y-54198952D01*
X134761904Y-54246571D01*
X134714285Y-54341809D01*
X134714285Y-54579904D01*
X134761904Y-54675142D01*
X134809523Y-54722761D01*
X134904761Y-54770380D01*
X135190476Y-54770380D01*
X135285714Y-54722761D01*
X135333333Y-54675142D01*
X113238095Y-69770380D02*
X113238095Y-68770380D01*
X112666666Y-69770380D02*
X113095238Y-69198952D01*
X112666666Y-68770380D02*
X113238095Y-69341809D01*
X111809523Y-69103714D02*
X111809523Y-69770380D01*
X112047619Y-68722761D02*
X112285714Y-69437047D01*
X111666666Y-69437047D01*
X170238095Y-92770380D02*
X170238095Y-91770380D01*
X169666666Y-92770380D02*
X170095238Y-92198952D01*
X169666666Y-91770380D02*
X170238095Y-92341809D01*
X168761904Y-91770380D02*
X169238095Y-91770380D01*
X169285714Y-92246571D01*
X169238095Y-92198952D01*
X169142857Y-92151333D01*
X168904761Y-92151333D01*
X168809523Y-92198952D01*
X168761904Y-92246571D01*
X168714285Y-92341809D01*
X168714285Y-92579904D01*
X168761904Y-92675142D01*
X168809523Y-92722761D01*
X168904761Y-92770380D01*
X169142857Y-92770380D01*
X169238095Y-92722761D01*
X169285714Y-92675142D01*
X150238095Y-92770380D02*
X150238095Y-91770380D01*
X149666666Y-92770380D02*
X150095238Y-92198952D01*
X149666666Y-91770380D02*
X150238095Y-92341809D01*
X148809523Y-91770380D02*
X149000000Y-91770380D01*
X149095238Y-91818000D01*
X149142857Y-91865619D01*
X149238095Y-92008476D01*
X149285714Y-92198952D01*
X149285714Y-92579904D01*
X149238095Y-92675142D01*
X149190476Y-92722761D01*
X149095238Y-92770380D01*
X148904761Y-92770380D01*
X148809523Y-92722761D01*
X148761904Y-92675142D01*
X148714285Y-92579904D01*
X148714285Y-92341809D01*
X148761904Y-92246571D01*
X148809523Y-92198952D01*
X148904761Y-92151333D01*
X149095238Y-92151333D01*
X149190476Y-92198952D01*
X149238095Y-92246571D01*
X149285714Y-92341809D01*
X130238095Y-92770380D02*
X130238095Y-91770380D01*
X129666666Y-92770380D02*
X130095238Y-92198952D01*
X129666666Y-91770380D02*
X130238095Y-92341809D01*
X129333333Y-91770380D02*
X128666666Y-91770380D01*
X129095238Y-92770380D01*
M02*
