G04 #@! TF.GenerationSoftware,KiCad,Pcbnew,(5.1.2)-2*
G04 #@! TF.CreationDate,2019-07-07T18:03:19+10:00*
G04 #@! TF.ProjectId,Left_Combined_Micro,4c656674-5f43-46f6-9d62-696e65645f4d,rev?*
G04 #@! TF.SameCoordinates,Original*
G04 #@! TF.FileFunction,Copper,L2,Bot*
G04 #@! TF.FilePolarity,Positive*
%FSLAX46Y46*%
G04 Gerber Fmt 4.6, Leading zero omitted, Abs format (unit mm)*
G04 Created by KiCad (PCBNEW (5.1.2)-2) date 2019-07-07 18:03:19*
%MOMM*%
%LPD*%
G04 APERTURE LIST*
%ADD10R,1.600000X1.600000*%
%ADD11C,1.600000*%
%ADD12R,1.700000X1.700000*%
%ADD13O,1.700000X1.700000*%
%ADD14C,2.500000*%
%ADD15C,2.500000*%
%ADD16C,0.250000*%
G04 APERTURE END LIST*
D10*
X184000000Y-31850000D03*
D11*
X184000000Y-39650000D03*
D10*
X167750000Y-43150000D03*
D11*
X167750000Y-35350000D03*
D10*
X144750000Y-53150000D03*
D11*
X144750000Y-45350000D03*
D10*
X121750000Y-68150000D03*
D11*
X121750000Y-60350000D03*
D10*
X178750000Y-91150000D03*
D11*
X178750000Y-83350000D03*
D10*
X158750000Y-91150000D03*
D11*
X158750000Y-83350000D03*
D10*
X138750000Y-91150000D03*
D11*
X138750000Y-83350000D03*
D12*
X194750000Y-32500000D03*
D13*
X194750000Y-35040000D03*
X194750000Y-37580000D03*
X194750000Y-40120000D03*
X194750000Y-42660000D03*
X194750000Y-45200000D03*
X194750000Y-47740000D03*
X194750000Y-50280000D03*
X194750000Y-52820000D03*
X194750000Y-55360000D03*
D12*
X162500000Y-52250000D03*
D13*
X159960000Y-52250000D03*
X157420000Y-52250000D03*
X154880000Y-52250000D03*
D14*
X178095000Y-46730000D03*
D15*
X178500453Y-46000046D02*
X177689547Y-47459954D01*
D14*
X184020000Y-45210000D03*
D15*
X184039724Y-44920672D02*
X184000276Y-45499328D01*
D14*
X155095000Y-36730000D03*
D15*
X155500453Y-36000046D02*
X154689547Y-37459954D01*
D14*
X161020000Y-35210000D03*
D15*
X161039724Y-34920672D02*
X161000276Y-35499328D01*
D14*
X132095000Y-46730000D03*
D15*
X132500453Y-46000046D02*
X131689547Y-47459954D01*
D14*
X138020000Y-45210000D03*
D15*
X138039724Y-44920672D02*
X138000276Y-45499328D01*
D14*
X109095000Y-61730000D03*
D15*
X109500453Y-61000046D02*
X108689547Y-62459954D01*
D14*
X115020000Y-60210000D03*
D15*
X115039724Y-59920672D02*
X115000276Y-60499328D01*
D14*
X166095000Y-84730000D03*
D15*
X166500453Y-84000046D02*
X165689547Y-85459954D01*
D14*
X172020000Y-83210000D03*
D15*
X172039724Y-82920672D02*
X172000276Y-83499328D01*
D14*
X146095000Y-84730000D03*
D15*
X146500453Y-84000046D02*
X145689547Y-85459954D01*
D14*
X152020000Y-83210000D03*
D15*
X152039724Y-82920672D02*
X152000276Y-83499328D01*
D14*
X126095000Y-84730000D03*
D15*
X126500453Y-84000046D02*
X125689547Y-85459954D01*
D14*
X132020000Y-83210000D03*
D15*
X132039724Y-82920672D02*
X132000276Y-83499328D01*
D16*
X184000000Y-39650000D02*
X184000000Y-45190000D01*
X184000000Y-45190000D02*
X184020000Y-45210000D01*
X178750000Y-91150000D02*
X193350000Y-91150000D01*
X197500000Y-32500000D02*
X194750000Y-32500000D01*
X198500000Y-33500000D02*
X197500000Y-32500000D01*
X198500000Y-86000000D02*
X198500000Y-33500000D01*
X193350000Y-91150000D02*
X198500000Y-86000000D01*
X167750000Y-43150000D02*
X169850000Y-43150000D01*
X171710000Y-35040000D02*
X194750000Y-35040000D01*
X170750000Y-36000000D02*
X171710000Y-35040000D01*
X170750000Y-42250000D02*
X170750000Y-36000000D01*
X169850000Y-43150000D02*
X170750000Y-42250000D01*
X194750000Y-35040000D02*
X196460000Y-35040000D01*
X160350000Y-91150000D02*
X158750000Y-91150000D01*
X161250000Y-90250000D02*
X160350000Y-91150000D01*
X161250000Y-79500000D02*
X161250000Y-90250000D01*
X162410000Y-78340000D02*
X161250000Y-79500000D01*
X196250000Y-78340000D02*
X162410000Y-78340000D01*
X197170000Y-77420000D02*
X196250000Y-78340000D01*
X197170000Y-35750000D02*
X197170000Y-77420000D01*
X196460000Y-35040000D02*
X197170000Y-35750000D01*
X194750000Y-37580000D02*
X193830000Y-37580000D01*
X146600000Y-53150000D02*
X144750000Y-53150000D01*
X147500000Y-52250000D02*
X146600000Y-53150000D01*
X147500000Y-47000000D02*
X147500000Y-52250000D01*
X148250000Y-46250000D02*
X147500000Y-47000000D01*
X171500000Y-46250000D02*
X148250000Y-46250000D01*
X172250000Y-45500000D02*
X171500000Y-46250000D01*
X172250000Y-37750000D02*
X172250000Y-45500000D01*
X173000000Y-37000000D02*
X172250000Y-37750000D01*
X193250000Y-37000000D02*
X173000000Y-37000000D01*
X193830000Y-37580000D02*
X193250000Y-37000000D01*
X147775000Y-58525000D02*
X190475000Y-58525000D01*
X192880000Y-40120000D02*
X192500000Y-40500000D01*
X192500000Y-40500000D02*
X192500000Y-56500000D01*
X192500000Y-56500000D02*
X190500000Y-58500000D01*
X192880000Y-40120000D02*
X194750000Y-40120000D01*
X190475000Y-58525000D02*
X190500000Y-58500000D01*
X121750000Y-68150000D02*
X138150000Y-68150000D01*
X138150000Y-68150000D02*
X147775000Y-58525000D01*
X147775000Y-58525000D02*
X147800000Y-58500000D01*
M02*
