M48
; DRILL file {KiCad (5.1.2)-2} date 07-Jul-19 18:03:23
; FORMAT={-:-/ absolute / inch / decimal}
; #@! TF.CreationDate,2019-07-07T18:03:23+10:00
; #@! TF.GenerationSoftware,Kicad,Pcbnew,(5.1.2)-2
; #@! TF.FileFunction,Plated,1,2,PTH
FMAT,2
INCH
T1C0.0276
T2C0.0394
T3C0.0591
%
G90
G05
T1
X5.4626Y-3.5886
X6.25Y-3.2815
X6.25Y-3.5886
X7.0374Y-3.2815
X7.0374Y-3.5886
X6.6043Y-1.3917
X6.6043Y-1.6988
X7.2441Y-1.2539
X7.2441Y-1.561
X4.7933Y-2.376
X4.7933Y-2.6831
X5.4626Y-3.2815
X5.6988Y-1.7854
X5.6988Y-2.0925
T2
X6.0976Y-2.0571
X6.1976Y-2.0571
X6.2976Y-2.0571
X6.3976Y-2.0571
X7.6673Y-1.2795
X7.6673Y-1.3795
X7.6673Y-1.4795
X7.6673Y-1.5795
X7.6673Y-1.6795
X7.6673Y-1.7795
X7.6673Y-1.8795
X7.6673Y-1.9795
X7.6673Y-2.0795
X7.6673Y-2.1795
T3
G00X5.2166Y-1.811
M15
G01X5.1846Y-1.8685
M16
G05
G00X5.4346Y-1.7685
M15
G01X5.4331Y-1.7913
M16
G05
G00X7.0276Y-1.811
M15
G01X6.9957Y-1.8685
M16
G05
G00X7.2457Y-1.7685
M15
G01X7.2441Y-1.7913
M16
G05
G00X5.7677Y-3.3071
M15
G01X5.7358Y-3.3646
M16
G05
G00X5.9858Y-3.2646
M15
G01X5.9843Y-3.2874
M16
G05
G00X4.311Y-2.4016
M15
G01X4.2791Y-2.4591
M16
G05
G00X4.5291Y-2.3591
M15
G01X4.5276Y-2.3819
M16
G05
G00X6.1221Y-1.4173
M15
G01X6.0901Y-1.4748
M16
G05
G00X6.3401Y-1.3748
M15
G01X6.3386Y-1.3976
M16
G05
G00X6.5551Y-3.3071
M15
G01X6.5232Y-3.3646
M16
G05
G00X6.7732Y-3.2646
M15
G01X6.7717Y-3.2874
M16
G05
G00X4.9803Y-3.3071
M15
G01X4.9484Y-3.3646
M16
G05
G00X5.1984Y-3.2646
M15
G01X5.1969Y-3.2874
M16
G05
T0
M30
