G04 #@! TF.FileFunction,Legend,Bot*
%FSLAX46Y46*%
G04 Gerber Fmt 4.6, Leading zero omitted, Abs format (unit mm)*
G04 Created by KiCad (PCBNEW 4.0.7) date 12/09/17 16:09:34*
%MOMM*%
%LPD*%
G01*
G04 APERTURE LIST*
%ADD10C,0.100000*%
%ADD11C,0.300000*%
%ADD12C,0.200000*%
G04 APERTURE END LIST*
D10*
D11*
X157285713Y-91928571D02*
X156928570Y-93428571D01*
X156642856Y-92357143D01*
X156357142Y-93428571D01*
X155999999Y-91928571D01*
X155499999Y-93000000D02*
X154785713Y-93000000D01*
X155642856Y-93428571D02*
X155142856Y-91928571D01*
X154642856Y-93428571D01*
X154142856Y-93428571D02*
X154142856Y-91928571D01*
X153642856Y-93000000D01*
X153142856Y-91928571D01*
X153142856Y-93428571D01*
X151928570Y-92642857D02*
X151714284Y-92714286D01*
X151642856Y-92785714D01*
X151571427Y-92928571D01*
X151571427Y-93142857D01*
X151642856Y-93285714D01*
X151714284Y-93357143D01*
X151857142Y-93428571D01*
X152428570Y-93428571D01*
X152428570Y-91928571D01*
X151928570Y-91928571D01*
X151785713Y-92000000D01*
X151714284Y-92071429D01*
X151642856Y-92214286D01*
X151642856Y-92357143D01*
X151714284Y-92500000D01*
X151785713Y-92571429D01*
X151928570Y-92642857D01*
X152428570Y-92642857D01*
X150999999Y-93000000D02*
X150285713Y-93000000D01*
X151142856Y-93428571D02*
X150642856Y-91928571D01*
X150142856Y-93428571D01*
X149857142Y-91928571D02*
X148999999Y-91928571D01*
X149428570Y-93428571D02*
X149428570Y-91928571D01*
X146857142Y-92642857D02*
X146642856Y-92714286D01*
X146571428Y-92785714D01*
X146499999Y-92928571D01*
X146499999Y-93142857D01*
X146571428Y-93285714D01*
X146642856Y-93357143D01*
X146785714Y-93428571D01*
X147357142Y-93428571D01*
X147357142Y-91928571D01*
X146857142Y-91928571D01*
X146714285Y-92000000D01*
X146642856Y-92071429D01*
X146571428Y-92214286D01*
X146571428Y-92357143D01*
X146642856Y-92500000D01*
X146714285Y-92571429D01*
X146857142Y-92642857D01*
X147357142Y-92642857D01*
X145857142Y-93428571D02*
X145857142Y-92428571D01*
X145857142Y-92714286D02*
X145785714Y-92571429D01*
X145714285Y-92500000D01*
X145571428Y-92428571D01*
X145428571Y-92428571D01*
X144285714Y-93428571D02*
X144285714Y-91928571D01*
X144285714Y-93357143D02*
X144428571Y-93428571D01*
X144714285Y-93428571D01*
X144857143Y-93357143D01*
X144928571Y-93285714D01*
X145000000Y-93142857D01*
X145000000Y-92714286D01*
X144928571Y-92571429D01*
X144857143Y-92500000D01*
X144714285Y-92428571D01*
X144428571Y-92428571D01*
X144285714Y-92500000D01*
X143714285Y-91928571D02*
X142785714Y-91928571D01*
X143285714Y-92500000D01*
X143071428Y-92500000D01*
X142928571Y-92571429D01*
X142857142Y-92642857D01*
X142785714Y-92785714D01*
X142785714Y-93142857D01*
X142857142Y-93285714D01*
X142928571Y-93357143D01*
X143071428Y-93428571D01*
X143500000Y-93428571D01*
X143642857Y-93357143D01*
X143714285Y-93285714D01*
D12*
X117631755Y-47179886D02*
X116988968Y-46413841D01*
X117194015Y-47547193D02*
X117155013Y-46833972D01*
X116551228Y-46781149D02*
X117356275Y-46851581D01*
X116464449Y-48159372D02*
X116902189Y-47792064D01*
X116683320Y-47975718D02*
X116040532Y-47209673D01*
X116205315Y-47257890D01*
X116339490Y-47269629D01*
X116443055Y-47244890D01*
X127825149Y-68230249D02*
X127483129Y-67290556D01*
X127288181Y-68425689D02*
X127495467Y-67742141D01*
X126946161Y-67485996D02*
X127678569Y-67827524D01*
X126620757Y-67705784D02*
X126559723Y-67677323D01*
X126453942Y-67665150D01*
X126230205Y-67746583D01*
X126156997Y-67823904D01*
X126128536Y-67884938D01*
X126116362Y-67990719D01*
X126148936Y-68080213D01*
X126242543Y-68198168D01*
X126974951Y-68539696D01*
X126393236Y-68751422D01*
X130238095Y-91770381D02*
X130238095Y-90770381D01*
X129666666Y-91770381D02*
X130095238Y-91198952D01*
X129666666Y-90770381D02*
X130238095Y-91341810D01*
X129333333Y-90770381D02*
X128714285Y-90770381D01*
X129047619Y-91151333D01*
X128904761Y-91151333D01*
X128809523Y-91198952D01*
X128761904Y-91246571D01*
X128714285Y-91341810D01*
X128714285Y-91579905D01*
X128761904Y-91675143D01*
X128809523Y-91722762D01*
X128904761Y-91770381D01*
X129190476Y-91770381D01*
X129285714Y-91722762D01*
X129333333Y-91675143D01*
X183499072Y-48128762D02*
X184141859Y-47362718D01*
X183061332Y-47761455D02*
X183756944Y-47599196D01*
X183704119Y-46995410D02*
X183774552Y-47800458D01*
X182833247Y-46699797D02*
X182404722Y-47210494D01*
X183260511Y-46561016D02*
X182983768Y-47261236D01*
X182509550Y-46863319D01*
X173562016Y-68735135D02*
X173904036Y-67795443D01*
X173025048Y-68539695D02*
X173623215Y-68149308D01*
X173367069Y-67600003D02*
X173708596Y-68332410D01*
X172516870Y-67290556D02*
X172964344Y-67453423D01*
X172846224Y-67917182D01*
X172817764Y-67856148D01*
X172744556Y-67778827D01*
X172520819Y-67697394D01*
X172415038Y-67709567D01*
X172354004Y-67738028D01*
X172276683Y-67811237D01*
X172195250Y-68034973D01*
X172207424Y-68140754D01*
X172235884Y-68201788D01*
X172309092Y-68279108D01*
X172532829Y-68360542D01*
X172638610Y-68348368D01*
X172699644Y-68319908D01*
X171238095Y-91770381D02*
X171238095Y-90770381D01*
X170666666Y-91770381D02*
X171095238Y-91198952D01*
X170666666Y-90770381D02*
X171238095Y-91341810D01*
X169809523Y-90770381D02*
X170000000Y-90770381D01*
X170095238Y-90818000D01*
X170142857Y-90865619D01*
X170238095Y-91008476D01*
X170285714Y-91198952D01*
X170285714Y-91579905D01*
X170238095Y-91675143D01*
X170190476Y-91722762D01*
X170095238Y-91770381D01*
X169904761Y-91770381D01*
X169809523Y-91722762D01*
X169761904Y-91675143D01*
X169714285Y-91579905D01*
X169714285Y-91341810D01*
X169761904Y-91246571D01*
X169809523Y-91198952D01*
X169904761Y-91151333D01*
X170095238Y-91151333D01*
X170190476Y-91198952D01*
X170238095Y-91246571D01*
X170285714Y-91341810D01*
M02*
