G04 #@! TF.FileFunction,Legend,Top*
%FSLAX46Y46*%
G04 Gerber Fmt 4.6, Leading zero omitted, Abs format (unit mm)*
G04 Created by KiCad (PCBNEW 4.0.7) date 12/09/17 16:09:34*
%MOMM*%
%LPD*%
G01*
G04 APERTURE LIST*
%ADD10C,0.100000*%
%ADD11C,0.200000*%
%ADD12C,0.120000*%
%ADD13C,0.381000*%
%ADD14C,0.300000*%
%ADD15C,0.150000*%
G04 APERTURE END LIST*
D10*
D11*
X145450000Y-40725000D02*
X143050000Y-40725000D01*
X145450000Y-40550000D02*
X143050000Y-40550000D01*
X145450000Y-40375000D02*
X143050000Y-40375000D01*
X143050000Y-39975000D02*
X145450000Y-39975000D01*
X145450000Y-40200000D02*
X143050000Y-40200000D01*
X145450000Y-40075000D02*
X143050000Y-40075000D01*
X145450000Y-40000000D02*
X145450000Y-45800000D01*
X145450000Y-45800000D02*
X143050000Y-45800000D01*
X143050000Y-45800000D02*
X143050000Y-40000000D01*
X151450000Y-40725000D02*
X149050000Y-40725000D01*
X151450000Y-40550000D02*
X149050000Y-40550000D01*
X151450000Y-40375000D02*
X149050000Y-40375000D01*
X149050000Y-39975000D02*
X151450000Y-39975000D01*
X151450000Y-40200000D02*
X149050000Y-40200000D01*
X151450000Y-40075000D02*
X149050000Y-40075000D01*
X151450000Y-40000000D02*
X151450000Y-45800000D01*
X151450000Y-45800000D02*
X149050000Y-45800000D01*
X149050000Y-45800000D02*
X149050000Y-40000000D01*
X157450000Y-40725000D02*
X155050000Y-40725000D01*
X157450000Y-40550000D02*
X155050000Y-40550000D01*
X157450000Y-40375000D02*
X155050000Y-40375000D01*
X155050000Y-39975000D02*
X157450000Y-39975000D01*
X157450000Y-40200000D02*
X155050000Y-40200000D01*
X157450000Y-40075000D02*
X155050000Y-40075000D01*
X157450000Y-40000000D02*
X157450000Y-45800000D01*
X157450000Y-45800000D02*
X155050000Y-45800000D01*
X155050000Y-45800000D02*
X155050000Y-40000000D01*
X148450000Y-40725000D02*
X146050000Y-40725000D01*
X148450000Y-40550000D02*
X146050000Y-40550000D01*
X148450000Y-40375000D02*
X146050000Y-40375000D01*
X146050000Y-39975000D02*
X148450000Y-39975000D01*
X148450000Y-40200000D02*
X146050000Y-40200000D01*
X148450000Y-40075000D02*
X146050000Y-40075000D01*
X148450000Y-40000000D02*
X148450000Y-45800000D01*
X148450000Y-45800000D02*
X146050000Y-45800000D01*
X146050000Y-45800000D02*
X146050000Y-40000000D01*
X154450000Y-40725000D02*
X152050000Y-40725000D01*
X154450000Y-40550000D02*
X152050000Y-40550000D01*
X154450000Y-40375000D02*
X152050000Y-40375000D01*
X152050000Y-39975000D02*
X154450000Y-39975000D01*
X154450000Y-40200000D02*
X152050000Y-40200000D01*
X154450000Y-40075000D02*
X152050000Y-40075000D01*
X154450000Y-40000000D02*
X154450000Y-45800000D01*
X154450000Y-45800000D02*
X152050000Y-45800000D01*
X152050000Y-45800000D02*
X152050000Y-40000000D01*
X160450000Y-40725000D02*
X158050000Y-40725000D01*
X160450000Y-40550000D02*
X158050000Y-40550000D01*
X160450000Y-40375000D02*
X158050000Y-40375000D01*
X158050000Y-39975000D02*
X160450000Y-39975000D01*
X160450000Y-40200000D02*
X158050000Y-40200000D01*
X160450000Y-40075000D02*
X158050000Y-40075000D01*
X160450000Y-40000000D02*
X160450000Y-45800000D01*
X160450000Y-45800000D02*
X158050000Y-45800000D01*
X158050000Y-45800000D02*
X158050000Y-40000000D01*
D12*
X146670000Y-33560000D02*
X172190000Y-33560000D01*
X172190000Y-33560000D02*
X172190000Y-30900000D01*
X172190000Y-30900000D02*
X146670000Y-30900000D01*
X146670000Y-30900000D02*
X146670000Y-33560000D01*
X147620000Y-30900000D02*
X147620000Y-24900000D01*
X147620000Y-24900000D02*
X148380000Y-24900000D01*
X148380000Y-24900000D02*
X148380000Y-30900000D01*
X147680000Y-30900000D02*
X147680000Y-24900000D01*
X147800000Y-30900000D02*
X147800000Y-24900000D01*
X147920000Y-30900000D02*
X147920000Y-24900000D01*
X148040000Y-30900000D02*
X148040000Y-24900000D01*
X148160000Y-30900000D02*
X148160000Y-24900000D01*
X148280000Y-30900000D02*
X148280000Y-24900000D01*
X147620000Y-33890000D02*
X147620000Y-33560000D01*
X148380000Y-33890000D02*
X148380000Y-33560000D01*
X149270000Y-33560000D02*
X149270000Y-30900000D01*
X150160000Y-30900000D02*
X150160000Y-24900000D01*
X150160000Y-24900000D02*
X150920000Y-24900000D01*
X150920000Y-24900000D02*
X150920000Y-30900000D01*
X150160000Y-33957071D02*
X150160000Y-33560000D01*
X150920000Y-33957071D02*
X150920000Y-33560000D01*
X151810000Y-33560000D02*
X151810000Y-30900000D01*
X152700000Y-30900000D02*
X152700000Y-24900000D01*
X152700000Y-24900000D02*
X153460000Y-24900000D01*
X153460000Y-24900000D02*
X153460000Y-30900000D01*
X152700000Y-33957071D02*
X152700000Y-33560000D01*
X153460000Y-33957071D02*
X153460000Y-33560000D01*
X154350000Y-33560000D02*
X154350000Y-30900000D01*
X155240000Y-30900000D02*
X155240000Y-24900000D01*
X155240000Y-24900000D02*
X156000000Y-24900000D01*
X156000000Y-24900000D02*
X156000000Y-30900000D01*
X155240000Y-33957071D02*
X155240000Y-33560000D01*
X156000000Y-33957071D02*
X156000000Y-33560000D01*
X156890000Y-33560000D02*
X156890000Y-30900000D01*
X157780000Y-30900000D02*
X157780000Y-24900000D01*
X157780000Y-24900000D02*
X158540000Y-24900000D01*
X158540000Y-24900000D02*
X158540000Y-30900000D01*
X157780000Y-33957071D02*
X157780000Y-33560000D01*
X158540000Y-33957071D02*
X158540000Y-33560000D01*
X159430000Y-33560000D02*
X159430000Y-30900000D01*
X160320000Y-30900000D02*
X160320000Y-24900000D01*
X160320000Y-24900000D02*
X161080000Y-24900000D01*
X161080000Y-24900000D02*
X161080000Y-30900000D01*
X160320000Y-33957071D02*
X160320000Y-33560000D01*
X161080000Y-33957071D02*
X161080000Y-33560000D01*
X161970000Y-33560000D02*
X161970000Y-30900000D01*
X162860000Y-30900000D02*
X162860000Y-24900000D01*
X162860000Y-24900000D02*
X163620000Y-24900000D01*
X163620000Y-24900000D02*
X163620000Y-30900000D01*
X162860000Y-33957071D02*
X162860000Y-33560000D01*
X163620000Y-33957071D02*
X163620000Y-33560000D01*
X164510000Y-33560000D02*
X164510000Y-30900000D01*
X165400000Y-30900000D02*
X165400000Y-24900000D01*
X165400000Y-24900000D02*
X166160000Y-24900000D01*
X166160000Y-24900000D02*
X166160000Y-30900000D01*
X165400000Y-33957071D02*
X165400000Y-33560000D01*
X166160000Y-33957071D02*
X166160000Y-33560000D01*
X167050000Y-33560000D02*
X167050000Y-30900000D01*
X167940000Y-30900000D02*
X167940000Y-24900000D01*
X167940000Y-24900000D02*
X168700000Y-24900000D01*
X168700000Y-24900000D02*
X168700000Y-30900000D01*
X167940000Y-33957071D02*
X167940000Y-33560000D01*
X168700000Y-33957071D02*
X168700000Y-33560000D01*
X169590000Y-33560000D02*
X169590000Y-30900000D01*
X170480000Y-30900000D02*
X170480000Y-24900000D01*
X170480000Y-24900000D02*
X171240000Y-24900000D01*
X171240000Y-24900000D02*
X171240000Y-30900000D01*
X170480000Y-33957071D02*
X170480000Y-33560000D01*
X171240000Y-33957071D02*
X171240000Y-33560000D01*
X148000000Y-36270000D02*
X146730000Y-36270000D01*
X146730000Y-36270000D02*
X146730000Y-35000000D01*
D13*
X105053916Y-43217319D02*
X106415943Y-42074443D01*
X113420654Y-36196793D02*
X114782681Y-35053916D01*
X114782681Y-35053916D02*
X115925557Y-36415943D01*
X121803207Y-43420654D02*
X122946084Y-44782681D01*
X122946084Y-44782681D02*
X121584057Y-45925557D01*
X114579346Y-51803207D02*
X113217319Y-52946084D01*
X113217319Y-52946084D02*
X112074443Y-51584057D01*
X106196793Y-44579346D02*
X105053916Y-43217319D01*
X117361124Y-60204780D02*
X119031897Y-59596668D01*
X127624447Y-56469236D02*
X129295220Y-55861124D01*
X129295220Y-55861124D02*
X129903332Y-57531897D01*
X133030764Y-66124447D02*
X133638876Y-67795220D01*
X133638876Y-67795220D02*
X131968103Y-68403332D01*
X123375553Y-71530764D02*
X121704780Y-72138876D01*
X121704780Y-72138876D02*
X121096668Y-70468103D01*
X117969236Y-61875553D02*
X117361124Y-60204780D01*
X123150000Y-80650000D02*
X124928000Y-80650000D01*
X134072000Y-80650000D02*
X135850000Y-80650000D01*
X135850000Y-80650000D02*
X135850000Y-82428000D01*
X135850000Y-91572000D02*
X135850000Y-93350000D01*
X135850000Y-93350000D02*
X134072000Y-93350000D01*
X124928000Y-93350000D02*
X123150000Y-93350000D01*
X123150000Y-93350000D02*
X123150000Y-91572000D01*
X123150000Y-82428000D02*
X123150000Y-80650000D01*
X185217319Y-35053916D02*
X186579346Y-36196793D01*
X193584057Y-42074443D02*
X194946084Y-43217319D01*
X194946084Y-43217319D02*
X193803207Y-44579346D01*
X187925557Y-51584057D02*
X186782681Y-52946084D01*
X186782681Y-52946084D02*
X185420654Y-51803207D01*
X178415943Y-45925557D02*
X177053916Y-44782681D01*
X177053916Y-44782681D02*
X178196793Y-43420654D01*
X184074443Y-36415943D02*
X185217319Y-35053916D01*
X170704780Y-55861124D02*
X172375553Y-56469236D01*
X180968103Y-59596668D02*
X182638876Y-60204780D01*
X182638876Y-60204780D02*
X182030764Y-61875553D01*
X178903332Y-70468103D02*
X178295220Y-72138876D01*
X178295220Y-72138876D02*
X176624447Y-71530764D01*
X168031897Y-68403332D02*
X166361124Y-67795220D01*
X166361124Y-67795220D02*
X166969236Y-66124447D01*
X170096668Y-57531897D02*
X170704780Y-55861124D01*
X164150000Y-80650000D02*
X165928000Y-80650000D01*
X175072000Y-80650000D02*
X176850000Y-80650000D01*
X176850000Y-80650000D02*
X176850000Y-82428000D01*
X176850000Y-91572000D02*
X176850000Y-93350000D01*
X176850000Y-93350000D02*
X175072000Y-93350000D01*
X165928000Y-93350000D02*
X164150000Y-93350000D01*
X164150000Y-93350000D02*
X164150000Y-91572000D01*
X164150000Y-82428000D02*
X164150000Y-80650000D01*
D14*
X147540000Y-60000000D02*
G75*
G03X147540000Y-60000000I-1270000J0D01*
G01*
X157540000Y-60000000D02*
G75*
G03X157540000Y-60000000I-1270000J0D01*
G01*
D11*
X138275000Y-42700000D02*
X138275000Y-40300000D01*
X138450000Y-42700000D02*
X138450000Y-40300000D01*
X138625000Y-42700000D02*
X138625000Y-40300000D01*
X139025000Y-40300000D02*
X139025000Y-42700000D01*
X138800000Y-42700000D02*
X138800000Y-40300000D01*
X138925000Y-42700000D02*
X138925000Y-40300000D01*
X139000000Y-42700000D02*
X133200000Y-42700000D01*
X133200000Y-42700000D02*
X133200000Y-40300000D01*
X133200000Y-40300000D02*
X139000000Y-40300000D01*
X138275000Y-39700000D02*
X138275000Y-37300000D01*
X138450000Y-39700000D02*
X138450000Y-37300000D01*
X138625000Y-39700000D02*
X138625000Y-37300000D01*
X139025000Y-37300000D02*
X139025000Y-39700000D01*
X138800000Y-39700000D02*
X138800000Y-37300000D01*
X138925000Y-39700000D02*
X138925000Y-37300000D01*
X139000000Y-39700000D02*
X133200000Y-39700000D01*
X133200000Y-39700000D02*
X133200000Y-37300000D01*
X133200000Y-37300000D02*
X139000000Y-37300000D01*
D12*
X125670000Y-33560000D02*
X135950000Y-33560000D01*
X135950000Y-33560000D02*
X135950000Y-30900000D01*
X135950000Y-30900000D02*
X125670000Y-30900000D01*
X125670000Y-30900000D02*
X125670000Y-33560000D01*
X126620000Y-30900000D02*
X126620000Y-24900000D01*
X126620000Y-24900000D02*
X127380000Y-24900000D01*
X127380000Y-24900000D02*
X127380000Y-30900000D01*
X126680000Y-30900000D02*
X126680000Y-24900000D01*
X126800000Y-30900000D02*
X126800000Y-24900000D01*
X126920000Y-30900000D02*
X126920000Y-24900000D01*
X127040000Y-30900000D02*
X127040000Y-24900000D01*
X127160000Y-30900000D02*
X127160000Y-24900000D01*
X127280000Y-30900000D02*
X127280000Y-24900000D01*
X126620000Y-33890000D02*
X126620000Y-33560000D01*
X127380000Y-33890000D02*
X127380000Y-33560000D01*
X128270000Y-33560000D02*
X128270000Y-30900000D01*
X129160000Y-30900000D02*
X129160000Y-24900000D01*
X129160000Y-24900000D02*
X129920000Y-24900000D01*
X129920000Y-24900000D02*
X129920000Y-30900000D01*
X129160000Y-33957071D02*
X129160000Y-33560000D01*
X129920000Y-33957071D02*
X129920000Y-33560000D01*
X130810000Y-33560000D02*
X130810000Y-30900000D01*
X131700000Y-30900000D02*
X131700000Y-24900000D01*
X131700000Y-24900000D02*
X132460000Y-24900000D01*
X132460000Y-24900000D02*
X132460000Y-30900000D01*
X131700000Y-33957071D02*
X131700000Y-33560000D01*
X132460000Y-33957071D02*
X132460000Y-33560000D01*
X133350000Y-33560000D02*
X133350000Y-30900000D01*
X134240000Y-30900000D02*
X134240000Y-24900000D01*
X134240000Y-24900000D02*
X135000000Y-24900000D01*
X135000000Y-24900000D02*
X135000000Y-30900000D01*
X134240000Y-33957071D02*
X134240000Y-33560000D01*
X135000000Y-33957071D02*
X135000000Y-33560000D01*
X127000000Y-36270000D02*
X125730000Y-36270000D01*
X125730000Y-36270000D02*
X125730000Y-35000000D01*
X161920000Y-40330000D02*
X164580000Y-40330000D01*
X161920000Y-40270000D02*
X161920000Y-40330000D01*
X164580000Y-40270000D02*
X164580000Y-40330000D01*
X161920000Y-40270000D02*
X164580000Y-40270000D01*
X161920000Y-39000000D02*
X161920000Y-37670000D01*
X161920000Y-37670000D02*
X163250000Y-37670000D01*
X169420000Y-40330000D02*
X172080000Y-40330000D01*
X169420000Y-40270000D02*
X169420000Y-40330000D01*
X172080000Y-40270000D02*
X172080000Y-40330000D01*
X169420000Y-40270000D02*
X172080000Y-40270000D01*
X169420000Y-39000000D02*
X169420000Y-37670000D01*
X169420000Y-37670000D02*
X170750000Y-37670000D01*
D15*
X142686905Y-43590476D02*
X141886905Y-43590476D01*
X141886905Y-43400000D01*
X141925000Y-43285714D01*
X142001190Y-43209523D01*
X142077381Y-43171428D01*
X142229762Y-43133333D01*
X142344048Y-43133333D01*
X142496429Y-43171428D01*
X142572619Y-43209523D01*
X142648810Y-43285714D01*
X142686905Y-43400000D01*
X142686905Y-43590476D01*
X142686905Y-42371428D02*
X142686905Y-42828571D01*
X142686905Y-42600000D02*
X141886905Y-42600000D01*
X142001190Y-42676190D01*
X142077381Y-42752381D01*
X142115476Y-42828571D01*
X148686905Y-43590476D02*
X147886905Y-43590476D01*
X147886905Y-43400000D01*
X147925000Y-43285714D01*
X148001190Y-43209523D01*
X148077381Y-43171428D01*
X148229762Y-43133333D01*
X148344048Y-43133333D01*
X148496429Y-43171428D01*
X148572619Y-43209523D01*
X148648810Y-43285714D01*
X148686905Y-43400000D01*
X148686905Y-43590476D01*
X147963095Y-42828571D02*
X147925000Y-42790476D01*
X147886905Y-42714285D01*
X147886905Y-42523809D01*
X147925000Y-42447619D01*
X147963095Y-42409523D01*
X148039286Y-42371428D01*
X148115476Y-42371428D01*
X148229762Y-42409523D01*
X148686905Y-42866666D01*
X148686905Y-42371428D01*
X154686905Y-43590476D02*
X153886905Y-43590476D01*
X153886905Y-43400000D01*
X153925000Y-43285714D01*
X154001190Y-43209523D01*
X154077381Y-43171428D01*
X154229762Y-43133333D01*
X154344048Y-43133333D01*
X154496429Y-43171428D01*
X154572619Y-43209523D01*
X154648810Y-43285714D01*
X154686905Y-43400000D01*
X154686905Y-43590476D01*
X153886905Y-42866666D02*
X153886905Y-42371428D01*
X154191667Y-42638095D01*
X154191667Y-42523809D01*
X154229762Y-42447619D01*
X154267857Y-42409523D01*
X154344048Y-42371428D01*
X154534524Y-42371428D01*
X154610714Y-42409523D01*
X154648810Y-42447619D01*
X154686905Y-42523809D01*
X154686905Y-42752381D01*
X154648810Y-42828571D01*
X154610714Y-42866666D01*
X145686905Y-43590476D02*
X144886905Y-43590476D01*
X144886905Y-43400000D01*
X144925000Y-43285714D01*
X145001190Y-43209523D01*
X145077381Y-43171428D01*
X145229762Y-43133333D01*
X145344048Y-43133333D01*
X145496429Y-43171428D01*
X145572619Y-43209523D01*
X145648810Y-43285714D01*
X145686905Y-43400000D01*
X145686905Y-43590476D01*
X145153571Y-42447619D02*
X145686905Y-42447619D01*
X144848810Y-42638095D02*
X145420238Y-42828571D01*
X145420238Y-42333333D01*
X151686905Y-43590476D02*
X150886905Y-43590476D01*
X150886905Y-43400000D01*
X150925000Y-43285714D01*
X151001190Y-43209523D01*
X151077381Y-43171428D01*
X151229762Y-43133333D01*
X151344048Y-43133333D01*
X151496429Y-43171428D01*
X151572619Y-43209523D01*
X151648810Y-43285714D01*
X151686905Y-43400000D01*
X151686905Y-43590476D01*
X150886905Y-42409523D02*
X150886905Y-42790476D01*
X151267857Y-42828571D01*
X151229762Y-42790476D01*
X151191667Y-42714285D01*
X151191667Y-42523809D01*
X151229762Y-42447619D01*
X151267857Y-42409523D01*
X151344048Y-42371428D01*
X151534524Y-42371428D01*
X151610714Y-42409523D01*
X151648810Y-42447619D01*
X151686905Y-42523809D01*
X151686905Y-42714285D01*
X151648810Y-42790476D01*
X151610714Y-42828571D01*
X157686905Y-43590476D02*
X156886905Y-43590476D01*
X156886905Y-43400000D01*
X156925000Y-43285714D01*
X157001190Y-43209523D01*
X157077381Y-43171428D01*
X157229762Y-43133333D01*
X157344048Y-43133333D01*
X157496429Y-43171428D01*
X157572619Y-43209523D01*
X157648810Y-43285714D01*
X157686905Y-43400000D01*
X157686905Y-43590476D01*
X156886905Y-42447619D02*
X156886905Y-42600000D01*
X156925000Y-42676190D01*
X156963095Y-42714285D01*
X157077381Y-42790476D01*
X157229762Y-42828571D01*
X157534524Y-42828571D01*
X157610714Y-42790476D01*
X157648810Y-42752381D01*
X157686905Y-42676190D01*
X157686905Y-42523809D01*
X157648810Y-42447619D01*
X157610714Y-42409523D01*
X157534524Y-42371428D01*
X157344048Y-42371428D01*
X157267857Y-42409523D01*
X157229762Y-42447619D01*
X157191667Y-42523809D01*
X157191667Y-42676190D01*
X157229762Y-42752381D01*
X157267857Y-42790476D01*
X157344048Y-42828571D01*
X145182381Y-30948333D02*
X145896667Y-30948333D01*
X146039524Y-30995953D01*
X146134762Y-31091191D01*
X146182381Y-31234048D01*
X146182381Y-31329286D01*
X146182381Y-29948333D02*
X146182381Y-30519762D01*
X146182381Y-30234048D02*
X145182381Y-30234048D01*
X145325238Y-30329286D01*
X145420476Y-30424524D01*
X145468095Y-30519762D01*
X144409524Y-62261905D02*
X144409524Y-61461905D01*
X144600000Y-61461905D01*
X144714286Y-61500000D01*
X144790477Y-61576190D01*
X144828572Y-61652381D01*
X144866667Y-61804762D01*
X144866667Y-61919048D01*
X144828572Y-62071429D01*
X144790477Y-62147619D01*
X144714286Y-62223810D01*
X144600000Y-62261905D01*
X144409524Y-62261905D01*
X145247619Y-62261905D02*
X145400000Y-62261905D01*
X145476191Y-62223810D01*
X145514286Y-62185714D01*
X145590477Y-62071429D01*
X145628572Y-61919048D01*
X145628572Y-61614286D01*
X145590477Y-61538095D01*
X145552381Y-61500000D01*
X145476191Y-61461905D01*
X145323810Y-61461905D01*
X145247619Y-61500000D01*
X145209524Y-61538095D01*
X145171429Y-61614286D01*
X145171429Y-61804762D01*
X145209524Y-61880952D01*
X145247619Y-61919048D01*
X145323810Y-61957143D01*
X145476191Y-61957143D01*
X145552381Y-61919048D01*
X145590477Y-61880952D01*
X145628572Y-61804762D01*
X154028571Y-62261905D02*
X154028571Y-61461905D01*
X154219047Y-61461905D01*
X154333333Y-61500000D01*
X154409524Y-61576190D01*
X154447619Y-61652381D01*
X154485714Y-61804762D01*
X154485714Y-61919048D01*
X154447619Y-62071429D01*
X154409524Y-62147619D01*
X154333333Y-62223810D01*
X154219047Y-62261905D01*
X154028571Y-62261905D01*
X155247619Y-62261905D02*
X154790476Y-62261905D01*
X155019047Y-62261905D02*
X155019047Y-61461905D01*
X154942857Y-61576190D01*
X154866666Y-61652381D01*
X154790476Y-61690476D01*
X155742857Y-61461905D02*
X155819048Y-61461905D01*
X155895238Y-61500000D01*
X155933333Y-61538095D01*
X155971429Y-61614286D01*
X156009524Y-61766667D01*
X156009524Y-61957143D01*
X155971429Y-62109524D01*
X155933333Y-62185714D01*
X155895238Y-62223810D01*
X155819048Y-62261905D01*
X155742857Y-62261905D01*
X155666667Y-62223810D01*
X155628571Y-62185714D01*
X155590476Y-62109524D01*
X155552381Y-61957143D01*
X155552381Y-61766667D01*
X155590476Y-61614286D01*
X155628571Y-61538095D01*
X155666667Y-61500000D01*
X155742857Y-61461905D01*
X135409524Y-39936905D02*
X135409524Y-39136905D01*
X135600000Y-39136905D01*
X135714286Y-39175000D01*
X135790477Y-39251190D01*
X135828572Y-39327381D01*
X135866667Y-39479762D01*
X135866667Y-39594048D01*
X135828572Y-39746429D01*
X135790477Y-39822619D01*
X135714286Y-39898810D01*
X135600000Y-39936905D01*
X135409524Y-39936905D01*
X136133334Y-39136905D02*
X136666667Y-39136905D01*
X136323810Y-39936905D01*
X135409524Y-36936905D02*
X135409524Y-36136905D01*
X135600000Y-36136905D01*
X135714286Y-36175000D01*
X135790477Y-36251190D01*
X135828572Y-36327381D01*
X135866667Y-36479762D01*
X135866667Y-36594048D01*
X135828572Y-36746429D01*
X135790477Y-36822619D01*
X135714286Y-36898810D01*
X135600000Y-36936905D01*
X135409524Y-36936905D01*
X136323810Y-36479762D02*
X136247619Y-36441667D01*
X136209524Y-36403571D01*
X136171429Y-36327381D01*
X136171429Y-36289286D01*
X136209524Y-36213095D01*
X136247619Y-36175000D01*
X136323810Y-36136905D01*
X136476191Y-36136905D01*
X136552381Y-36175000D01*
X136590477Y-36213095D01*
X136628572Y-36289286D01*
X136628572Y-36327381D01*
X136590477Y-36403571D01*
X136552381Y-36441667D01*
X136476191Y-36479762D01*
X136323810Y-36479762D01*
X136247619Y-36517857D01*
X136209524Y-36555952D01*
X136171429Y-36632143D01*
X136171429Y-36784524D01*
X136209524Y-36860714D01*
X136247619Y-36898810D01*
X136323810Y-36936905D01*
X136476191Y-36936905D01*
X136552381Y-36898810D01*
X136590477Y-36860714D01*
X136628572Y-36784524D01*
X136628572Y-36632143D01*
X136590477Y-36555952D01*
X136552381Y-36517857D01*
X136476191Y-36479762D01*
X124182381Y-30948333D02*
X124896667Y-30948333D01*
X125039524Y-30995953D01*
X125134762Y-31091191D01*
X125182381Y-31234048D01*
X125182381Y-31329286D01*
X124277619Y-30519762D02*
X124230000Y-30472143D01*
X124182381Y-30376905D01*
X124182381Y-30138809D01*
X124230000Y-30043571D01*
X124277619Y-29995952D01*
X124372857Y-29948333D01*
X124468095Y-29948333D01*
X124610952Y-29995952D01*
X125182381Y-30567381D01*
X125182381Y-29948333D01*
X162916667Y-36122381D02*
X162916667Y-36836667D01*
X162869047Y-36979524D01*
X162773809Y-37074762D01*
X162630952Y-37122381D01*
X162535714Y-37122381D01*
X163297619Y-36122381D02*
X163916667Y-36122381D01*
X163583333Y-36503333D01*
X163726191Y-36503333D01*
X163821429Y-36550952D01*
X163869048Y-36598571D01*
X163916667Y-36693810D01*
X163916667Y-36931905D01*
X163869048Y-37027143D01*
X163821429Y-37074762D01*
X163726191Y-37122381D01*
X163440476Y-37122381D01*
X163345238Y-37074762D01*
X163297619Y-37027143D01*
X170416667Y-36122381D02*
X170416667Y-36836667D01*
X170369047Y-36979524D01*
X170273809Y-37074762D01*
X170130952Y-37122381D01*
X170035714Y-37122381D01*
X171321429Y-36455714D02*
X171321429Y-37122381D01*
X171083333Y-36074762D02*
X170845238Y-36789048D01*
X171464286Y-36789048D01*
M02*
