M48
; DRILL file {KiCad (5.1.2)-2} date 07-Jul-19 18:02:35
; FORMAT={-:-/ absolute / inch / decimal}
; #@! TF.CreationDate,2019-07-07T18:02:35+10:00
; #@! TF.GenerationSoftware,Kicad,Pcbnew,(5.1.2)-2
; #@! TF.FileFunction,Plated,1,2,PTH
FMAT,2
INCH
T1C0.0276
T2C0.0394
T3C0.0591
%
G90
G05
T1
X5.5079Y-1.5157
X5.7972Y-1.5394
X5.7972Y-1.8465
X6.0335Y-1.5394
X6.2697Y-1.5394
X6.2697Y-1.8465
X5.2008Y-1.6339
X5.5079Y-1.6339
X6.1516Y-1.5394
X6.1516Y-1.8465
X5.6791Y-1.5394
X5.6791Y-1.8465
X5.2008Y-1.5157
X5.9154Y-1.5394
X5.9154Y-1.8465
X6.0335Y-1.8465
T2
X6.0524Y-2.3622
X6.1524Y-2.3622
X5.8268Y-1.378
X5.9268Y-1.378
X6.0268Y-1.378
X6.1268Y-1.378
X6.2268Y-1.378
X6.3268Y-1.378
X6.4268Y-1.378
X6.5268Y-1.378
X6.6268Y-1.378
X6.7268Y-1.378
X6.7224Y-1.5354
X6.4272Y-1.5354
X5.6587Y-2.3622
X5.7587Y-2.3622
X5.0Y-1.378
X5.1Y-1.378
X5.2Y-1.378
X5.3Y-1.378
T3
G00X7.3336Y-1.5357
M15
G01X7.2722Y-1.5592
M16
G05
G00X7.528Y-1.6434
M15
G01X7.5121Y-1.6598
M16
G05
G00X4.9803Y-3.2677
M15
G01X4.9484Y-3.3252
M16
G05
G00X5.1984Y-3.2252
M15
G01X5.1969Y-3.248
M16
G05
G00X6.813Y-2.3313
M15
G01X6.7633Y-2.3744
M16
G05
G00X7.0324Y-2.366
M15
G01X7.0232Y-2.3868
M16
G05
G00X4.2965Y-1.6876
M15
G01X4.309Y-1.7521
M16
G05
G00X4.4362Y-1.5148
M15
G01X4.4497Y-1.5333
M16
G05
G00X4.7761Y-2.4121
M15
G01X4.7658Y-2.477
M16
G05
G00X4.9665Y-2.2976
M15
G01X4.9728Y-2.3195
M16
G05
G00X6.5945Y-3.2677
M15
G01X6.5626Y-3.3252
M16
G05
G00X6.8126Y-3.2252
M15
G01X6.811Y-3.248
M16
G05
T0
M30
