M48
; DRILL file {KiCad (5.1.2)-2} date 07-Jul-19 18:02:35
; FORMAT={-:-/ absolute / inch / decimal}
; #@! TF.CreationDate,2019-07-07T18:02:35+10:00
; #@! TF.GenerationSoftware,Kicad,Pcbnew,(5.1.2)-2
; #@! TF.FileFunction,NonPlated,1,2,NPTH
FMAT,2
INCH
T1C0.0670
T2C0.1260
T3C0.1570
%
G90
G05
T1
X7.1696Y-1.6037
X4.8984Y-3.4252
X7.058Y-2.5881
X4.335Y-1.8608
X4.6414Y-1.6037
X4.753Y-2.5881
X5.1289Y-2.4513
X6.5126Y-3.4252
X6.9126Y-3.4252
X7.476Y-1.8608
X5.2984Y-3.4252
X6.6821Y-2.4513
T2
X4.0945Y-1.3386
X7.2835Y-3.4252
X7.7165Y-1.3386
X4.5276Y-3.4252
T3
X7.3228Y-1.7323
X5.0984Y-3.4252
X6.8701Y-2.5197
X4.4882Y-1.7323
X4.9409Y-2.5197
X6.7126Y-3.4252
T0
M30
