G04 #@! TF.GenerationSoftware,KiCad,Pcbnew,(5.1.2)-2*
G04 #@! TF.CreationDate,2019-07-07T18:02:28+10:00*
G04 #@! TF.ProjectId,Center_Micro,43656e74-6572-45f4-9d69-63726f2e6b69,rev?*
G04 #@! TF.SameCoordinates,Original*
G04 #@! TF.FileFunction,Copper,L2,Bot*
G04 #@! TF.FilePolarity,Positive*
%FSLAX46Y46*%
G04 Gerber Fmt 4.6, Leading zero omitted, Abs format (unit mm)*
G04 Created by KiCad (PCBNEW (5.1.2)-2) date 2019-07-07 18:02:28*
%MOMM*%
%LPD*%
G04 APERTURE LIST*
%ADD10R,1.600000X1.600000*%
%ADD11C,1.600000*%
%ADD12R,1.700000X1.700000*%
%ADD13O,1.700000X1.700000*%
%ADD14C,2.500000*%
%ADD15C,2.500000*%
%ADD16C,1.700000*%
%ADD17C,0.250000*%
G04 APERTURE END LIST*
D10*
X144250000Y-39100000D03*
D11*
X144250000Y-46900000D03*
D10*
X150250000Y-39100000D03*
D11*
X150250000Y-46900000D03*
D10*
X156250000Y-39100000D03*
D11*
X156250000Y-46900000D03*
D10*
X147250000Y-39100000D03*
D11*
X147250000Y-46900000D03*
D10*
X153250000Y-39100000D03*
D11*
X153250000Y-46900000D03*
D10*
X159250000Y-39100000D03*
D11*
X159250000Y-46900000D03*
D12*
X148000000Y-35000000D03*
D13*
X150540000Y-35000000D03*
X153080000Y-35000000D03*
X155620000Y-35000000D03*
X158160000Y-35000000D03*
X160700000Y-35000000D03*
X163240000Y-35000000D03*
X165780000Y-35000000D03*
X168320000Y-35000000D03*
X170860000Y-35000000D03*
D14*
X109289703Y-43683726D03*
D15*
X109131093Y-42863929D02*
X109448313Y-44503523D01*
D14*
X112851479Y-38710822D03*
D15*
X112680612Y-38476505D02*
X113022346Y-38945139D01*
D14*
X121181941Y-62091784D03*
D15*
X121313283Y-61267179D02*
X121050599Y-62916389D01*
D14*
X126229749Y-58636982D03*
D15*
X126149328Y-58358356D02*
X126310170Y-58915608D01*
D14*
X126095000Y-83730000D03*
D15*
X126500453Y-83000046D02*
X125689547Y-84459954D01*
D14*
X132020000Y-82210000D03*
D15*
X132039724Y-81920672D02*
X132000276Y-82499328D01*
D14*
X185493534Y-39306343D03*
D15*
X186273334Y-39007786D02*
X184713734Y-39604900D01*
D14*
X191009385Y-41950472D03*
D15*
X191210472Y-41741512D02*
X190808298Y-42159432D01*
D14*
X172418752Y-59762627D03*
D15*
X173049412Y-59215368D02*
X171788092Y-60309886D01*
D14*
X178506302Y-60360763D03*
D15*
X178623793Y-60095629D02*
X178388811Y-60625897D01*
D14*
X167095000Y-83730000D03*
D15*
X167500453Y-83000046D02*
X166689547Y-84459954D01*
D14*
X173020000Y-82210000D03*
D15*
X173039724Y-81920672D02*
X173000276Y-82499328D01*
D16*
X146270000Y-60000000D03*
X143730000Y-60000000D03*
X156270000Y-60000000D03*
X153730000Y-60000000D03*
D10*
X139900000Y-41500000D03*
D11*
X132100000Y-41500000D03*
D10*
X139900000Y-38500000D03*
D11*
X132100000Y-38500000D03*
D12*
X127000000Y-35000000D03*
D13*
X129540000Y-35000000D03*
X132080000Y-35000000D03*
X134620000Y-35000000D03*
D12*
X163250000Y-39000000D03*
X170750000Y-39000000D03*
D17*
X191009385Y-41950472D02*
X191009385Y-43240615D01*
X191009385Y-43240615D02*
X185750000Y-48500000D01*
X147250000Y-43250000D02*
X147250000Y-46900000D01*
X147500000Y-43000000D02*
X147250000Y-43250000D01*
X162500000Y-43000000D02*
X147500000Y-43000000D01*
X163000000Y-43500000D02*
X162500000Y-43000000D01*
X163000000Y-48000000D02*
X163000000Y-43500000D01*
X163500000Y-48500000D02*
X163000000Y-48000000D01*
X185750000Y-48500000D02*
X163500000Y-48500000D01*
X153250000Y-46900000D02*
X153250000Y-49250000D01*
X168145539Y-50000000D02*
X178506302Y-60360763D01*
X154000000Y-50000000D02*
X168145539Y-50000000D01*
X153250000Y-49250000D02*
X154000000Y-50000000D01*
X109289703Y-43683726D02*
X109289703Y-33460297D01*
X110500000Y-32250000D02*
X130000000Y-32250000D01*
X109289703Y-33460297D02*
X110500000Y-32250000D01*
X129540000Y-35000000D02*
X129540000Y-32710000D01*
X158160000Y-32660000D02*
X158160000Y-35000000D01*
X157750000Y-32250000D02*
X158160000Y-32660000D01*
X130000000Y-32250000D02*
X157750000Y-32250000D01*
X129540000Y-32710000D02*
X130000000Y-32250000D01*
X172418752Y-59762627D02*
X172418752Y-62081248D01*
X167095000Y-67405000D02*
X167095000Y-83730000D01*
X172418752Y-62081248D02*
X167095000Y-67405000D01*
X160700000Y-35000000D02*
X160700000Y-32550000D01*
X185493534Y-33993534D02*
X185493534Y-39306343D01*
X183750000Y-32250000D02*
X185493534Y-33993534D01*
X161000000Y-32250000D02*
X183750000Y-32250000D01*
X160700000Y-32550000D02*
X161000000Y-32250000D01*
X134620000Y-35000000D02*
X144750000Y-35000000D01*
X160700000Y-36550000D02*
X160700000Y-35000000D01*
X160250000Y-37000000D02*
X160700000Y-36550000D01*
X146750000Y-37000000D02*
X160250000Y-37000000D01*
X144750000Y-35000000D02*
X146750000Y-37000000D01*
M02*
