M48
INCH,TZ
T1C0.028
T2C0.039
T3C0.059
%
G90
G05
T1
X5.2008Y-1.5157
X5.2008Y-1.6339
X5.5079Y-1.5157
X5.5079Y-1.6339
X5.6791Y-1.5394
X5.6791Y-1.8465
X5.7972Y-1.5394
X5.7972Y-1.8465
X5.9154Y-1.5394
X5.9154Y-1.8465
X6.0335Y-1.5394
X6.0335Y-1.8465
X6.1516Y-1.5394
X6.1516Y-1.8465
X6.2697Y-1.5394
X6.2697Y-1.8465
T2
X5.Y-1.378
X5.1Y-1.378
X5.2Y-1.378
X5.3Y-1.378
X5.6587Y-2.3622
X5.7587Y-2.3622
X5.8268Y-1.378
X5.9268Y-1.378
X6.0268Y-1.378
X6.0524Y-2.3622
X6.1268Y-1.378
X6.1524Y-2.3622
X6.2268Y-1.378
X6.3268Y-1.378
X6.4268Y-1.378
X6.4272Y-1.5354
X6.5268Y-1.378
X6.6268Y-1.378
X6.7224Y-1.5354
X6.7268Y-1.378
T3
X4.2965Y-1.6876G85X4.309Y-1.7521
G05
X4.4362Y-1.5148G85X4.4497Y-1.5333
G05
X4.7761Y-2.4121G85X4.7658Y-2.477
G05
X4.9803Y-3.2677G85X4.9484Y-3.3252
G05
X4.9665Y-2.2976G85X4.9728Y-2.3195
G05
X5.1984Y-3.2252G85X5.1969Y-3.248
G05
X6.5945Y-3.2677G85X6.5626Y-3.3252
G05
X6.813Y-2.3313G85X6.7633Y-2.3744
G05
X6.8126Y-3.2252G85X6.811Y-3.248
G05
X7.0324Y-2.366G85X7.0232Y-2.3868
G05
X7.3336Y-1.5357G85X7.2722Y-1.5592
G05
X7.528Y-1.6434G85X7.5121Y-1.6598
G05
T0
M30
