G04 #@! TF.GenerationSoftware,KiCad,Pcbnew,(5.1.2)-2*
G04 #@! TF.CreationDate,2019-07-07T18:02:28+10:00*
G04 #@! TF.ProjectId,Center_Micro,43656e74-6572-45f4-9d69-63726f2e6b69,rev?*
G04 #@! TF.SameCoordinates,Original*
G04 #@! TF.FileFunction,Copper,L1,Top*
G04 #@! TF.FilePolarity,Positive*
%FSLAX46Y46*%
G04 Gerber Fmt 4.6, Leading zero omitted, Abs format (unit mm)*
G04 Created by KiCad (PCBNEW (5.1.2)-2) date 2019-07-07 18:02:28*
%MOMM*%
%LPD*%
G04 APERTURE LIST*
%ADD10R,1.200000X1.200000*%
%ADD11R,1.600000X1.600000*%
%ADD12C,1.600000*%
%ADD13R,0.500000X2.500000*%
%ADD14R,1.700000X1.700000*%
%ADD15O,1.700000X1.700000*%
%ADD16C,2.500000*%
%ADD17C,2.500000*%
%ADD18C,1.700000*%
%ADD19R,2.500000X0.500000*%
%ADD20C,0.250000*%
G04 APERTURE END LIST*
D10*
X144250000Y-44575000D03*
X144250000Y-41425000D03*
D11*
X144250000Y-39100000D03*
D12*
X144250000Y-46900000D03*
D13*
X144250000Y-40300000D03*
X144250000Y-45700000D03*
D10*
X150250000Y-44575000D03*
X150250000Y-41425000D03*
D11*
X150250000Y-39100000D03*
D12*
X150250000Y-46900000D03*
D13*
X150250000Y-40300000D03*
X150250000Y-45700000D03*
D10*
X156250000Y-44575000D03*
X156250000Y-41425000D03*
D11*
X156250000Y-39100000D03*
D12*
X156250000Y-46900000D03*
D13*
X156250000Y-40300000D03*
X156250000Y-45700000D03*
D10*
X147250000Y-44575000D03*
X147250000Y-41425000D03*
D11*
X147250000Y-39100000D03*
D12*
X147250000Y-46900000D03*
D13*
X147250000Y-40300000D03*
X147250000Y-45700000D03*
D10*
X153250000Y-44575000D03*
X153250000Y-41425000D03*
D11*
X153250000Y-39100000D03*
D12*
X153250000Y-46900000D03*
D13*
X153250000Y-40300000D03*
X153250000Y-45700000D03*
D10*
X159250000Y-44575000D03*
X159250000Y-41425000D03*
D11*
X159250000Y-39100000D03*
D12*
X159250000Y-46900000D03*
D13*
X159250000Y-40300000D03*
X159250000Y-45700000D03*
D14*
X148000000Y-35000000D03*
D15*
X150540000Y-35000000D03*
X153080000Y-35000000D03*
X155620000Y-35000000D03*
X158160000Y-35000000D03*
X160700000Y-35000000D03*
X163240000Y-35000000D03*
X165780000Y-35000000D03*
X168320000Y-35000000D03*
X170860000Y-35000000D03*
D16*
X109289703Y-43683726D03*
D17*
X109131093Y-42863929D02*
X109448313Y-44503523D01*
D16*
X112851479Y-38710822D03*
D17*
X112680612Y-38476505D02*
X113022346Y-38945139D01*
D16*
X121181941Y-62091784D03*
D17*
X121313283Y-61267179D02*
X121050599Y-62916389D01*
D16*
X126229749Y-58636982D03*
D17*
X126149328Y-58358356D02*
X126310170Y-58915608D01*
D16*
X126095000Y-83730000D03*
D17*
X126500453Y-83000046D02*
X125689547Y-84459954D01*
D16*
X132020000Y-82210000D03*
D17*
X132039724Y-81920672D02*
X132000276Y-82499328D01*
D16*
X185493534Y-39306343D03*
D17*
X186273334Y-39007786D02*
X184713734Y-39604900D01*
D16*
X191009385Y-41950472D03*
D17*
X191210472Y-41741512D02*
X190808298Y-42159432D01*
D16*
X172418752Y-59762627D03*
D17*
X173049412Y-59215368D02*
X171788092Y-60309886D01*
D16*
X178506302Y-60360763D03*
D17*
X178623793Y-60095629D02*
X178388811Y-60625897D01*
D16*
X167095000Y-83730000D03*
D17*
X167500453Y-83000046D02*
X166689547Y-84459954D01*
D16*
X173020000Y-82210000D03*
D17*
X173039724Y-81920672D02*
X173000276Y-82499328D01*
D18*
X146270000Y-60000000D03*
X143730000Y-60000000D03*
X156270000Y-60000000D03*
X153730000Y-60000000D03*
D10*
X134425000Y-41500000D03*
X137575000Y-41500000D03*
D11*
X139900000Y-41500000D03*
D12*
X132100000Y-41500000D03*
D19*
X138700000Y-41500000D03*
X133300000Y-41500000D03*
D10*
X134425000Y-38500000D03*
X137575000Y-38500000D03*
D11*
X139900000Y-38500000D03*
D12*
X132100000Y-38500000D03*
D19*
X138700000Y-38500000D03*
X133300000Y-38500000D03*
D14*
X127000000Y-35000000D03*
D15*
X129540000Y-35000000D03*
X132080000Y-35000000D03*
X134620000Y-35000000D03*
D14*
X163250000Y-39000000D03*
X170750000Y-39000000D03*
D20*
X112851479Y-38710822D02*
X126960822Y-38710822D01*
X135150000Y-46900000D02*
X144250000Y-46900000D01*
X126960822Y-38710822D02*
X135150000Y-46900000D01*
X148000000Y-35000000D02*
X148000000Y-36250000D01*
X147250000Y-37000000D02*
X147250000Y-39100000D01*
X148000000Y-36250000D02*
X147250000Y-37000000D01*
X144250000Y-41425000D02*
X147250000Y-41425000D01*
X150250000Y-46900000D02*
X150250000Y-48250000D01*
X126229749Y-56770251D02*
X126229749Y-58636982D01*
X134500000Y-48500000D02*
X126229749Y-56770251D01*
X150000000Y-48500000D02*
X134500000Y-48500000D01*
X150250000Y-48250000D02*
X150000000Y-48500000D01*
X150250000Y-41425000D02*
X153250000Y-41425000D01*
X150540000Y-35000000D02*
X150540000Y-35960000D01*
X150250000Y-36250000D02*
X150250000Y-39100000D01*
X150540000Y-35960000D02*
X150250000Y-36250000D01*
X156250000Y-46900000D02*
X156250000Y-49250000D01*
X134000000Y-80230000D02*
X132020000Y-82210000D01*
X134000000Y-51250000D02*
X134000000Y-80230000D01*
X135250000Y-50000000D02*
X134000000Y-51250000D01*
X155500000Y-50000000D02*
X135250000Y-50000000D01*
X156250000Y-49250000D02*
X155500000Y-50000000D01*
X153080000Y-35000000D02*
X153080000Y-36330000D01*
X156250000Y-37500000D02*
X156250000Y-39100000D01*
X155750000Y-37000000D02*
X156250000Y-37500000D01*
X153750000Y-37000000D02*
X155750000Y-37000000D01*
X153080000Y-36330000D02*
X153750000Y-37000000D01*
X156250000Y-41425000D02*
X159250000Y-41425000D01*
X191009385Y-41950472D02*
X191009385Y-43264940D01*
X173020000Y-82210000D02*
X173020000Y-81520000D01*
X173020000Y-81520000D02*
X157250000Y-65750000D01*
X157250000Y-65750000D02*
X144250000Y-65750000D01*
X144250000Y-65750000D02*
X141000000Y-62500000D01*
X141000000Y-62500000D02*
X141000000Y-57250000D01*
X141000000Y-57250000D02*
X145500000Y-52750000D01*
X145500000Y-52750000D02*
X159000000Y-52750000D01*
X159000000Y-52750000D02*
X159250000Y-52500000D01*
X159250000Y-52500000D02*
X159250000Y-46900000D01*
X127000000Y-35000000D02*
X127000000Y-36400000D01*
X127000000Y-36400000D02*
X132100000Y-41500000D01*
X132080000Y-35000000D02*
X132080000Y-38480000D01*
X132080000Y-38480000D02*
X132100000Y-38500000D01*
X121181941Y-62091784D02*
X121181941Y-63681941D01*
X121181941Y-63681941D02*
X126095000Y-68595000D01*
X126095000Y-68595000D02*
X126095000Y-83730000D01*
X109289703Y-43683726D02*
X109683726Y-43683726D01*
X109683726Y-43683726D02*
X121181941Y-55181941D01*
X121181941Y-55181941D02*
X121181941Y-62091784D01*
X185493534Y-39306343D02*
X185493534Y-40006466D01*
X185493534Y-40006466D02*
X172418752Y-53081248D01*
X172418752Y-53081248D02*
X172418752Y-59762627D01*
X163240000Y-35000000D02*
X163240000Y-38990000D01*
X163240000Y-38990000D02*
X163250000Y-39000000D01*
X139900000Y-38500000D02*
X139900000Y-32650000D01*
X155650000Y-32750000D02*
X155650000Y-34970000D01*
X155200000Y-32300000D02*
X155650000Y-32750000D01*
X140250000Y-32300000D02*
X155200000Y-32300000D01*
X139900000Y-32650000D02*
X140250000Y-32300000D01*
X155650000Y-34970000D02*
X155620000Y-35000000D01*
X137575000Y-38500000D02*
X137575000Y-41500000D01*
X156270000Y-60000000D02*
X164750000Y-60000000D01*
X170750000Y-41750000D02*
X170750000Y-39000000D01*
X165500000Y-47000000D02*
X170750000Y-41750000D01*
X165500000Y-59250000D02*
X165500000Y-47000000D01*
X164750000Y-60000000D02*
X165500000Y-59250000D01*
X146270000Y-60000000D02*
X146270000Y-61770000D01*
X156270000Y-61730000D02*
X156270000Y-60000000D01*
X155750000Y-62250000D02*
X156270000Y-61730000D01*
X146750000Y-62250000D02*
X155750000Y-62250000D01*
X146270000Y-61770000D02*
X146750000Y-62250000D01*
X170860000Y-35000000D02*
X170860000Y-38890000D01*
X170860000Y-38890000D02*
X170750000Y-39000000D01*
X163000000Y-45500000D02*
X163000000Y-54750000D01*
X143730000Y-58270000D02*
X146500000Y-55500000D01*
X163000000Y-45500000D02*
X166500000Y-42000000D01*
X166500000Y-35000000D02*
X166500000Y-42000000D01*
X143730000Y-58270000D02*
X143730000Y-60000000D01*
X162250000Y-55500000D02*
X146500000Y-55500000D01*
X163000000Y-54750000D02*
X162250000Y-55500000D01*
X153730000Y-60000000D02*
X153730000Y-58270000D01*
X167750000Y-43000000D02*
X167750000Y-35000000D01*
X164250000Y-46500000D02*
X167750000Y-43000000D01*
X164250000Y-57000000D02*
X164250000Y-46500000D01*
X163500000Y-57750000D02*
X164250000Y-57000000D01*
X154250000Y-57750000D02*
X163500000Y-57750000D01*
X153730000Y-58270000D02*
X154250000Y-57750000D01*
M02*
